ExploreSansVariable_Black Sans Italic.ufo
<glyph name="quotedbl" format="2">
  <advance width="414"/>
  <unicode hex="0022"/>
  <outline>
    <contour>
      <point x="60.7822" y="772" type="line"/>
      <point x="206.782" y="772" type="line"/>
      <point x="137.218" y="520" type="line"/>
      <point x="23.2178" y="520" type="line"/>
    </contour>
    <contour>
      <point x="260.782" y="772" type="line"/>
      <point x="406.782" y="772" type="line"/>
      <point x="337.218" y="520" type="line"/>
      <point x="223.218" y="520" type="line"/>
    </contour>
  </outline>
</glyph>
<glyph name="numbersign" format="2">
  <advance width="676"/>
  <unicode hex="0023"/>
  <outline>
    <contour>
      <point x="288.945" y="724" type="line"/>
      <point x="454.945" y="724" type="line"/>
      <point x="388.274" y="575" type="line"/>
      <point x="480.274" y="575" type="line"/>
      <point x="546.945" y="724" type="line"/>
      <point x="712.945" y="724" type="line"/>
      <point x="646.274" y="575" type="line"/>
      <point x="697.274" y="575" type="line"/>
      <point x="663.266" y="415" type="line"/>
      <point x="574.266" y="415" type="line"/>
      <point x="527.585" y="313" type="line"/>
      <point x="641.585" y="313" type="line"/>
      <point x="607.575" y="153" type="line"/>
      <point x="455.575" y="153" type="line"/>
      <point x="387.055" y="0" type="line"/>
      <point x="221.055" y="0" type="line"/>
      <point x="289.575" y="153" type="line"/>
      <point x="197.575" y="153" type="line"/>
      <point x="129.055" y="0" type="line"/>
      <point x="-36.9453" y="0" type="line"/>
      <point x="31.5752" y="153" type="line"/>
      <point x="-20.4248" y="153" type="line"/>
      <point x="13.585" y="313" type="line"/>
      <point x="103.585" y="313" type="line"/>
      <point x="150.266" y="415" type="line"/>
      <point x="35.2656" y="415" type="line"/>
      <point x="69.2744" y="575" type="line"/>
      <point x="222.274" y="575" type="line"/>
    </contour>
    <contour>
      <point x="361.585" y="313" type="line"/>
      <point x="408.266" y="415" type="line"/>
      <point x="316.266" y="415" type="line"/>
      <point x="269.585" y="313" type="line"/>
    </contour>
  </outline>
</glyph>
<glyph name="percent" format="2">
  <advance width="823"/>
  <unicode hex="0025"/>
  <outline>
    <contour>
      <point x="616.245" y="708" type="line"/>
      <point x="765.245" y="708" type="line"/>
      <point x="207.755" y="0" type="line"/>
      <point x="57.7549" y="0" type="line"/>
    </contour>
    <contour>
      <point x="629.275" y="360" type="curve" smooth="yes"/>
      <point x="736.275" y="360"/>
      <point x="792.546" y="286"/>
      <point x="769.165" y="176" type="curve" smooth="yes"/>
      <point x="745.784" y="66"/>
      <point x="658.055" y="-8"/>
      <point x="551.055" y="-8" type="curve" smooth="yes"/>
      <point x="444.055" y="-8"/>
      <point x="387.784" y="66"/>
      <point x="411.165" y="176" type="curve" smooth="yes"/>
      <point x="434.546" y="286"/>
      <point x="522.275" y="360"/>
    </contour>
    <contour>
      <point x="606.106" y="251" type="curve" smooth="yes"/>
      <point x="567.106" y="251"/>
      <point x="540.793" y="226"/>
      <point x="529.74" y="174" type="curve" smooth="yes"/>
      <point x="519.324" y="125"/>
      <point x="535.011" y="100"/>
      <point x="575.011" y="100" type="curve" smooth="yes"/>
      <point x="615.011" y="100"/>
      <point x="639.324" y="125"/>
      <point x="649.74" y="174" type="curve" smooth="yes"/>
      <point x="660.367" y="224"/>
      <point x="645.106" y="251"/>
    </contour>
    <contour>
      <point x="247.989" y="608" type="curve" smooth="yes"/>
      <point x="206.989" y="608"/>
      <point x="182.676" y="583"/>
      <point x="171.622" y="531" type="curve" smooth="yes"/>
      <point x="160.995" y="481"/>
      <point x="175.894" y="457"/>
      <point x="216.894" y="457" type="curve" smooth="yes"/>
      <point x="256.894" y="457"/>
      <point x="280.782" y="480"/>
      <point x="291.835" y="532" type="curve" smooth="yes"/>
      <point x="302.463" y="582"/>
      <point x="287.989" y="608"/>
    </contour>
    <contour>
      <point x="271.945" y="716" type="curve" smooth="yes"/>
      <point x="378.945" y="716"/>
      <point x="434.642" y="644"/>
      <point x="411.26" y="534" type="curve" smooth="yes"/>
      <point x="387.879" y="424"/>
      <point x="298.725" y="348"/>
      <point x="191.725" y="348" type="curve" smooth="yes"/>
      <point x="85.7246" y="348"/>
      <point x="30.666" y="423"/>
      <point x="54.2598" y="534" type="curve" smooth="yes"/>
      <point x="77.4287" y="643"/>
      <point x="163.945" y="716"/>
    </contour>
  </outline>
</glyph>
<glyph name="ampersand" format="2">
  <advance width="756"/>
  <unicode hex="0026"/>
  <outline>
    <contour>
      <point x="447.945" y="716" type="curve" smooth="yes"/>
      <point x="518.945" y="716"/>
      <point x="560.82" y="706"/>
      <point x="628.656" y="677" type="curve"/>
      <point x="545.512" y="554" type="line"/>
      <point x="517.062" y="566"/>
      <point x="500.4" y="577"/>
      <point x="464.4" y="577" type="curve" smooth="yes"/>
      <point x="417.4" y="577"/>
      <point x="378.937" y="556"/>
      <point x="368.733" y="508" type="curve" smooth="yes"/>
      <point x="362.782" y="480"/>
      <point x="380.405" y="450"/>
      <point x="399.241" y="421" type="curve"/>
      <point x="664.755" y="0" type="line"/>
      <point x="448.755" y="0" type="line"/>
      <point x="225.377" y="384" type="line"/>
      <point x="190.854" y="438"/>
      <point x="183.019" y="467"/>
      <point x="197.26" y="534" type="curve" smooth="yes"/>
      <point x="220.642" y="644"/>
      <point x="305.945" y="716"/>
    </contour>
    <contour>
      <point x="212.828" y="426.186" type="line"/>
      <point x="278.198" y="322" type="line"/>
      <point x="239.884" y="297" type="line" smooth="yes"/>
      <point x="197.542" y="269.371"/>
      <point x="180.588" y="243.287"/>
      <point x="173.361" y="209.287" type="curve" smooth="yes"/>
      <point x="163.123" y="161.118"/>
      <point x="187.58" y="129"/>
      <point x="243.58" y="129" type="curve" smooth="yes"/>
      <point x="307.58" y="129"/>
      <point x="346.728" y="150.097"/>
      <point x="400.131" y="237" type="curve" smooth="yes"/>
      <point x="525.492" y="441" type="line"/>
      <point x="747.092" y="425" type="line"/>
      <point x="718.184" y="289" type="line"/>
      <point x="600.884" y="297" type="line"/>
      <point x="574.532" y="253"/>
      <point x="552.093" y="218"/>
      <point x="520.039" y="166" type="curve" smooth="yes"/>
      <point x="446.532" y="46"/>
      <point x="336.055" y="-8"/>
      <point x="181.055" y="-8" type="curve" smooth="yes"/>
      <point x="24.1689" y="-8"/>
      <point x="-28.6377" y="68.7227"/>
      <point x="-2.70605" y="190.722" type="curve" smooth="yes"/>
      <point x="16.4238" y="280.722"/>
      <point x="88.9482" y="343.428"/>
      <point x="169.14" y="397" type="curve" smooth="yes"/>
    </contour>
  </outline>
</glyph>
<glyph name="quotesingle" format="2">
  <advance width="185"/>
  <unicode hex="0027"/>
  <outline>
    <contour>
      <point x="46.0576" y="772" type="line"/>
      <point x="194.058" y="772" type="line"/>
      <point x="121.942" y="508" type="line"/>
      <point x="5.94238" y="508" type="line"/>
    </contour>
  </outline>
</glyph>
<glyph name="parenleft" format="2">
  <advance width="400"/>
  <unicode hex="0028"/>
  <outline>
    <contour>
      <point x="288.824" y="800" type="curve"/>
      <point x="472.824" y="800" type="line"/>
      <point x="383.796" y="734"/>
      <point x="260.313" y="600"/>
      <point x="211.638" y="371" type="curve" smooth="yes"/>
      <point x="162.75" y="141"/>
      <point x="219.142" y="-3"/>
      <point x="289.176" y="-64" type="curve"/>
      <point x="110.176" y="-64" type="line"/>
      <point x="17.5186" y="27"/>
      <point x="-21.8105" y="176"/>
      <point x="19.6377" y="371" type="curve" smooth="yes"/>
      <point x="57.2598" y="548"/>
      <point x="165.757" y="715"/>
    </contour>
  </outline>
</glyph>
<glyph name="parenright" format="2">
  <advance width="400"/>
  <unicode hex="0029"/>
  <outline>
    <contour>
      <point x="110.824" y="800" type="curve"/>
      <point x="294.824" y="800" type="line"/>
      <point x="381.757" y="715"/>
      <point x="419.26" y="548"/>
      <point x="381.638" y="371" type="curve" smooth="yes"/>
      <point x="340.189" y="176"/>
      <point x="237.519" y="27"/>
      <point x="106.176" y="-64" type="curve"/>
      <point x="-72.8242" y="-64" type="line"/>
      <point x="23.1416" y="-3"/>
      <point x="140.75" y="141"/>
      <point x="189.638" y="371" type="curve" smooth="yes"/>
      <point x="238.313" y="600"/>
      <point x="171.796" y="734"/>
    </contour>
  </outline>
</glyph>
<glyph name="asterisk" format="2">
  <advance width="479"/>
  <unicode hex="002A"/>
  <outline>
    <contour>
      <point x="221.961" y="806" type="line"/>
      <point x="336.961" y="806" type="line"/>
      <point x="316.768" y="711" type="line"/>
      <point x="295.328" y="676" type="line"/>
      <point x="332.217" y="699" type="line"/>
      <point x="435.743" y="725" type="line"/>
      <point x="439.425" y="620" type="line"/>
      <point x="322.261" y="591" type="line"/>
      <point x="287.898" y="594" type="line"/>
      <point x="314.647" y="574" type="line"/>
      <point x="362.367" y="488" type="line"/>
      <point x="263.039" y="430" type="line"/>
      <point x="225.106" y="515" type="line"/>
      <point x="223.908" y="547" type="line"/>
      <point x="209.106" y="515" type="line"/>
      <point x="135.039" y="430" type="line"/>
      <point x="60.3672" y="488" type="line"/>
      <point x="145.86" y="575" type="line"/>
      <point x="177.111" y="595" type="line"/>
      <point x="141.474" y="592" type="line"/>
      <point x="40.4248" y="620" type="line"/>
      <point x="87.7432" y="725" type="line"/>
      <point x="184.005" y="698" type="line"/>
      <point x="207.328" y="676" type="line"/>
      <point x="201.768" y="711" type="line"/>
    </contour>
  </outline>
</glyph>
<glyph name="plus" format="2">
  <advance width="564"/>
  <unicode hex="002B"/>
  <outline>
    <contour>
      <point x="263.274" y="480" type="line"/>
      <point x="391.274" y="480" type="line"/>
      <point x="359.604" y="331" type="line"/>
      <point x="513.604" y="331" type="line"/>
      <point x="486.396" y="203" type="line"/>
      <point x="332.396" y="203" type="line"/>
      <point x="300.726" y="54" type="line"/>
      <point x="172.726" y="54" type="line"/>
      <point x="204.396" y="203" type="line"/>
      <point x="50.3965" y="203" type="line"/>
      <point x="77.6035" y="331" type="line"/>
      <point x="231.604" y="331" type="line"/>
    </contour>
  </outline>
</glyph>
<glyph name="comma" format="2">
  <advance width="273"/>
  <unicode hex="002C"/>
  <outline>
    <contour>
      <point x="79.5938" y="79" type="line"/>
      <point x="240.594" y="79" type="line"/>
      <point x="130.406" y="-143" type="line"/>
      <point x="32.4062" y="-143" type="line"/>
    </contour>
  </outline>
</glyph>
<glyph name="hyphen" format="2">
  <advance width="500"/>
  <unicode hex="002D"/>
  <outline>
    <contour>
      <point x="47.1787" y="331" type="line"/>
      <point x="479.179" y="331" type="line"/>
      <point x="452.821" y="207" type="line"/>
      <point x="20.8213" y="207" type="line"/>
    </contour>
  </outline>
</glyph>
<glyph name="period" format="2">
  <advance width="252"/>
  <unicode hex="002E"/>
  <outline>
    <contour>
      <point x="147.681" y="196" type="curve" smooth="yes"/>
      <point x="203.681" y="196"/>
      <point x="242.241" y="161"/>
      <point x="228" y="94" type="curve" smooth="yes"/>
      <point x="213.546" y="26"/>
      <point x="160.319" y="-8"/>
      <point x="104.319" y="-8" type="curve" smooth="yes"/>
      <point x="48.3193" y="-8"/>
      <point x="9.5459" y="26"/>
      <point x="24" y="94" type="curve" smooth="yes"/>
      <point x="38.2412" y="161"/>
      <point x="91.6807" y="196"/>
    </contour>
  </outline>
</glyph>
<glyph name="slash" format="2">
  <advance width="432"/>
  <unicode hex="002F"/>
  <outline>
    <contour>
      <point x="392.269" y="772" type="line"/>
      <point x="566.269" y="772" type="line"/>
      <point x="39.7314" y="-115" type="line"/>
      <point x="-134.269" y="-115" type="line"/>
    </contour>
  </outline>
</glyph>
<glyph name="zero" format="2">
  <advance width="595"/>
  <unicode hex="0030"/>
  <outline>
    <contour>
      <point x="340.83" y="556" type="curve" smooth="yes"/>
      <point x="272.83" y="556"/>
      <point x="243.526" y="484"/>
      <point x="216.744" y="358" type="curve" smooth="yes"/>
      <point x="187.836" y="222"/>
      <point x="188.17" y="153"/>
      <point x="254.17" y="153" type="curve" smooth="yes"/>
      <point x="322.17" y="153"/>
      <point x="351.411" y="220"/>
      <point x="381.382" y="361" type="curve" smooth="yes"/>
      <point x="407.738" y="485"/>
      <point x="409.83" y="556"/>
    </contour>
    <contour>
      <point x="375.839" y="716" type="curve" smooth="yes"/>
      <point x="544.839" y="716"/>
      <point x="625.946" y="613"/>
      <point x="571.318" y="356" type="curve" smooth="yes"/>
      <point x="516.904" y="100"/>
      <point x="391.161" y="-7"/>
      <point x="221.161" y="-7" type="curve" smooth="yes"/>
      <point x="53.1611" y="-7"/>
      <point x="-30.7334" y="97"/>
      <point x="24.1064" y="355" type="curve" smooth="yes"/>
      <point x="78.9463" y="613"/>
      <point x="206.839" y="716"/>
    </contour>
  </outline>
</glyph>
<glyph name="one" format="2">
  <advance width="595"/>
  <unicode hex="0031"/>
  <outline>
    <contour>
      <point x="356.245" y="708" type="line"/>
      <point x="484.245" y="708" type="line"/>
      <point x="367.764" y="160" type="line"/>
      <point x="509.764" y="160" type="line"/>
      <point x="475.755" y="0" type="line"/>
      <point x="-18.2451" y="0" type="line"/>
      <point x="15.7637" y="160" type="line"/>
      <point x="175.764" y="160" type="line"/>
      <point x="251.435" y="516" type="line"/>
      <point x="86.4053" y="450" type="line"/>
      <point x="122.54" y="620" type="line"/>
    </contour>
  </outline>
</glyph>
<glyph name="two" format="2">
  <advance width="595"/>
  <unicode hex="0032"/>
  <outline>
    <contour>
      <point x="91.9648" y="626" type="line"/>
      <point x="162.656" y="681"/>
      <point x="266.096" y="716"/>
      <point x="356.096" y="716" type="curve" smooth="yes"/>
      <point x="532.096" y="716"/>
      <point x="603.24" y="632"/>
      <point x="573.907" y="494" type="curve" smooth="yes"/>
      <point x="554.353" y="402"/>
      <point x="471.985" y="325"/>
      <point x="366.769" y="244" type="curve" smooth="yes"/>
      <point x="352.431" y="233"/>
      <point x="258.126" y="161"/>
      <point x="257.914" y="160" type="curve"/>
      <point x="511.914" y="160" type="line"/>
      <point x="476.904" y="0" type="line"/>
      <point x="-32.0957" y="0" type="line"/>
      <point x="-4.46289" y="130" type="line"/>
      <point x="283.425" y="360" type="line" smooth="yes"/>
      <point x="349.479" y="412"/>
      <point x="380.13" y="448"/>
      <point x="388.633" y="488" type="curve" smooth="yes"/>
      <point x="397.135" y="528"/>
      <point x="379.425" y="567"/>
      <point x="313.425" y="567" type="curve" smooth="yes"/>
      <point x="252.425" y="567"/>
      <point x="200.874" y="555"/>
      <point x="141.458" y="506" type="curve"/>
    </contour>
  </outline>
</glyph>
<glyph name="three" format="2">
  <advance width="595"/>
  <unicode hex="0033"/>
  <outline>
    <contour>
      <point x="145.096" y="708" type="line"/>
      <point x="627.096" y="708" type="line"/>
      <point x="603.289" y="596" type="line"/>
      <point x="408.941" y="425" type="line"/>
      <point x="489.941" y="425"/>
      <point x="581.102" y="374"/>
      <point x="551.131" y="233" type="curve" smooth="yes"/>
      <point x="513.934" y="58"/>
      <point x="367.904" y="-8"/>
      <point x="207.904" y="-8" type="curve" smooth="yes"/>
      <point x="105.904" y="-8"/>
      <point x="42.8809" y="6"/>
      <point x="-21.2549" y="43" type="curve"/>
      <point x="38.8408" y="194" type="line"/>
      <point x="83.1025" y="167"/>
      <point x="137.213" y="144"/>
      <point x="218.213" y="144" type="curve" smooth="yes"/>
      <point x="309.213" y="144"/>
      <point x="347.016" y="176"/>
      <point x="358.493" y="230" type="curve" smooth="yes"/>
      <point x="369.121" y="280"/>
      <point x="331.647" y="306"/>
      <point x="278.647" y="306" type="curve" smooth="yes"/>
      <point x="221.647" y="306" type="line"/>
      <point x="203.666" y="419" type="line"/>
      <point x="364.212" y="558" type="line"/>
      <point x="113.212" y="558" type="line"/>
    </contour>
  </outline>
</glyph>
<glyph name="four" format="2">
  <advance width="595"/>
  <unicode hex="0034"/>
  <outline>
    <contour>
      <point x="301.245" y="708" type="line"/>
      <point x="488.245" y="708" type="line"/>
      <point x="193.908" y="283" type="line"/>
      <point x="327.908" y="283" type="line"/>
      <point x="370.633" y="484" type="line"/>
      <point x="546.633" y="484" type="line"/>
      <point x="503.908" y="283" type="line"/>
      <point x="559.908" y="283" type="line"/>
      <point x="525.899" y="123" type="line"/>
      <point x="469.899" y="123" type="line"/>
      <point x="443.755" y="0" type="line"/>
      <point x="267.755" y="0" type="line"/>
      <point x="293.899" y="123" type="line"/>
      <point x="-17.1006" y="123" type="line"/>
      <point x="16.9082" y="283" type="line"/>
    </contour>
  </outline>
</glyph>
<glyph name="five" format="2">
  <advance width="595"/>
  <unicode hex="0035"/>
  <outline>
    <contour>
      <point x="47" y="708" type="line"/>
      <point x="512" y="708" type="line"/>
      <point x="512" y="548" type="line"/>
      <point x="222" y="548" type="line"/>
      <point x="219" y="410" type="line"/>
      <point x="243" y="441"/>
      <point x="290" y="462"/>
      <point x="357" y="462" type="curve" smooth="yes"/>
      <point x="473" y="462"/>
      <point x="560" y="388"/>
      <point x="560" y="240" type="curve" smooth="yes"/>
      <point x="560" y="93"/>
      <point x="467" y="-8"/>
      <point x="267" y="-8" type="curve" smooth="yes"/>
      <point x="161" y="-8"/>
      <point x="75" y="27"/>
      <point x="33" y="51" type="curve"/>
      <point x="68" y="204" type="line"/>
      <point x="90" y="192"/>
      <point x="157" y="147"/>
      <point x="257" y="147" type="curve" smooth="yes"/>
      <point x="322" y="147"/>
      <point x="368" y="180"/>
      <point x="368" y="238" type="curve" smooth="yes"/>
      <point x="368" y="298"/>
      <point x="332" y="326"/>
      <point x="286" y="326" type="curve" smooth="yes"/>
      <point x="246" y="326"/>
      <point x="222" y="300"/>
      <point x="216" y="288" type="curve"/>
      <point x="45" y="288" type="line"/>
    </contour>
  </outline>
</glyph>
<glyph name="six" format="2">
  <advance width="595"/>
  <unicode hex="0036"/>
  <outline>
    <contour>
      <point x="359" y="708" type="line"/>
      <point x="555" y="708" type="line"/>
      <point x="536" y="686"/>
      <point x="299" y="437"/>
      <point x="273" y="387" type="curve"/>
      <point x="310" y="428"/>
      <point x="348" y="453"/>
      <point x="412" y="453" type="curve" smooth="yes"/>
      <point x="489" y="453"/>
      <point x="567" y="399"/>
      <point x="567" y="281" type="curve" smooth="yes"/>
      <point x="567" y="55"/>
      <point x="377" y="-8"/>
      <point x="255" y="-8" type="curve" smooth="yes"/>
      <point x="120" y="-8"/>
      <point x="30" y="74"/>
      <point x="30" y="179" type="curve" smooth="yes"/>
      <point x="30" y="271"/>
      <point x="58" y="374"/>
      <point x="155" y="482" type="curve" smooth="yes"/>
    </contour>
    <contour>
      <point x="316" y="312" type="curve" smooth="yes"/>
      <point x="287" y="312"/>
      <point x="262" y="296"/>
      <point x="243" y="273" type="curve" smooth="yes"/>
      <point x="230" y="257"/>
      <point x="222" y="230"/>
      <point x="222" y="210" type="curve" smooth="yes"/>
      <point x="222" y="179"/>
      <point x="235" y="152"/>
      <point x="276" y="152" type="curve" smooth="yes"/>
      <point x="335" y="152"/>
      <point x="376" y="196"/>
      <point x="376" y="252" type="curve" smooth="yes"/>
      <point x="376" y="295"/>
      <point x="353" y="312"/>
    </contour>
  </outline>
</glyph>
<glyph name="seven" format="2">
  <advance width="595"/>
  <unicode hex="0037"/>
  <outline>
    <contour>
      <point x="107.245" y="708" type="line"/>
      <point x="630.245" y="708" type="line"/>
      <point x="596.236" y="548" type="line"/>
      <point x="242.755" y="0" type="line"/>
      <point x="37.7549" y="0" type="line"/>
      <point x="406.236" y="548" type="line"/>
      <point x="73.2363" y="548" type="line"/>
    </contour>
  </outline>
</glyph>
<glyph name="eight" format="2">
  <advance width="595"/>
  <unicode hex="0038"/>
  <outline>
    <contour>
      <point x="372.839" y="716" type="curve" smooth="yes"/>
      <point x="533.839" y="716"/>
      <point x="614.748" y="645"/>
      <point x="589.028" y="524" type="curve" smooth="yes"/>
      <point x="574.362" y="455"/>
      <point x="530.309" y="403"/>
      <point x="460.507" y="371" type="curve"/>
      <point x="529.705" y="339"/>
      <point x="555.377" y="281"/>
      <point x="537.735" y="198" type="curve" smooth="yes"/>
      <point x="510.74" y="71"/>
      <point x="390.161" y="-7"/>
      <point x="219.161" y="-7" type="curve" smooth="yes"/>
      <point x="49.1611" y="-7"/>
      <point x="-36.4727" y="70"/>
      <point x="-9.26465" y="198" type="curve" smooth="yes"/>
      <point x="8.58984" y="282"/>
      <point x="57.918" y="340"/>
      <point x="139.507" y="371" type="curve"/>
      <point x="84.3086" y="403"/>
      <point x="63.3623" y="455"/>
      <point x="78.0283" y="524" type="curve" smooth="yes"/>
      <point x="103.96" y="646"/>
      <point x="211.839" y="716"/>
    </contour>
    <contour>
      <point x="346.932" y="580" type="curve" smooth="yes"/>
      <point x="295.932" y="580"/>
      <point x="260.192" y="553"/>
      <point x="250.202" y="506" type="curve" smooth="yes"/>
      <point x="240.212" y="459"/>
      <point x="262.898" y="434"/>
      <point x="313.898" y="434" type="curve" smooth="yes"/>
      <point x="365.898" y="434"/>
      <point x="401.425" y="460"/>
      <point x="411.202" y="506" type="curve" smooth="yes"/>
      <point x="420.979" y="552"/>
      <point x="395.932" y="580"/>
    </contour>
    <contour>
      <point x="284.778" y="297" type="curve" smooth="yes"/>
      <point x="230.778" y="297"/>
      <point x="193.614" y="268"/>
      <point x="183.198" y="219" type="curve" smooth="yes"/>
      <point x="171.083" y="162"/>
      <point x="193.919" y="133"/>
      <point x="251.919" y="133" type="curve" smooth="yes"/>
      <point x="300.919" y="133"/>
      <point x="342.721" y="165"/>
      <point x="352.498" y="211" type="curve" smooth="yes"/>
      <point x="363.977" y="265"/>
      <point x="338.778" y="297"/>
    </contour>
  </outline>
</glyph>
<glyph name="nine" format="2">
  <advance width="595"/>
  <unicode hex="0039"/>
  <outline>
    <contour>
      <point x="373.945" y="716" type="curve" smooth="yes"/>
      <point x="538.945" y="716"/>
      <point x="628.603" y="625"/>
      <point x="582.903" y="410" type="curve" smooth="yes"/>
      <point x="524.45" y="135"/>
      <point x="292.03" y="6"/>
      <point x="68.0547" y="-8" type="curve"/>
      <point x="90.5752" y="145" type="line"/>
      <point x="187.575" y="145"/>
      <point x="349.479" y="201"/>
      <point x="378.174" y="336" type="curve"/>
      <point x="356.821" y="292"/>
      <point x="291.319" y="252"/>
      <point x="222.319" y="252" type="curve" smooth="yes"/>
      <point x="63.3193" y="252"/>
      <point x="21.2363" y="341"/>
      <point x="50.7822" y="480" type="curve" smooth="yes"/>
      <point x="82.666" y="630"/>
      <point x="217.945" y="716"/>
    </contour>
    <contour>
      <point x="338.937" y="556" type="curve" smooth="yes"/>
      <point x="291.937" y="556"/>
      <point x="253.41" y="530"/>
      <point x="241.082" y="472" type="curve" smooth="yes"/>
      <point x="229.179" y="416"/>
      <point x="260.077" y="392"/>
      <point x="305.077" y="392" type="curve" smooth="yes"/>
      <point x="334.077" y="392"/>
      <point x="372.628" y="404"/>
      <point x="393.666" y="423" type="curve"/>
      <point x="398.28" y="440"/>
      <point x="401.681" y="456"/>
      <point x="405.145" y="477" type="curve" smooth="yes"/>
      <point x="413.835" y="532"/>
      <point x="390.937" y="556"/>
    </contour>
  </outline>
</glyph>
<glyph name="colon" format="2">
  <advance width="298"/>
  <unicode hex="003A"/>
  <outline>
    <contour>
      <point x="203.965" y="528" type="curve" smooth="yes"/>
      <point x="259.965" y="528"/>
      <point x="298.738" y="494"/>
      <point x="284.284" y="426" type="curve" smooth="yes"/>
      <point x="270.043" y="359"/>
      <point x="216.604" y="324"/>
      <point x="160.604" y="324" type="curve" smooth="yes"/>
      <point x="104.604" y="324"/>
      <point x="66.043" y="359"/>
      <point x="80.2842" y="426" type="curve" smooth="yes"/>
      <point x="94.7383" y="494"/>
      <point x="147.965" y="528"/>
    </contour>
    <contour>
      <point x="133.396" y="196" type="curve" smooth="yes"/>
      <point x="189.396" y="196"/>
      <point x="228.17" y="162"/>
      <point x="213.716" y="94" type="curve" smooth="yes"/>
      <point x="199.475" y="27"/>
      <point x="146.035" y="-8"/>
      <point x="90.0352" y="-8" type="curve" smooth="yes"/>
      <point x="34.0352" y="-8"/>
      <point x="-4.52539" y="27"/>
      <point x="9.71582" y="94" type="curve" smooth="yes"/>
      <point x="24.1699" y="162"/>
      <point x="77.3965" y="196"/>
    </contour>
  </outline>
</glyph>
<glyph name="less" format="2">
  <advance width="547"/>
  <unicode hex="003C"/>
  <outline>
    <contour>
      <point x="54.1592" y="331" type="line"/>
      <point x="516.419" y="511" type="line"/>
      <point x="537.7" y="390" type="line"/>
      <point x="230.894" y="278" type="line"/>
      <point x="490.3" y="167" type="line"/>
      <point x="417.581" y="46" type="line"/>
      <point x="31.8408" y="226" type="line"/>
    </contour>
  </outline>
</glyph>
<glyph name="equal" format="2">
  <advance width="579"/>
  <unicode hex="003D"/>
  <outline>
    <contour>
      <point x="95.458" y="434" type="line"/>
      <point x="579.458" y="434" type="line"/>
      <point x="554.377" y="316" type="line"/>
      <point x="70.377" y="316" type="line"/>
    </contour>
    <contour>
      <point x="57.623" y="256" type="line"/>
      <point x="541.623" y="256" type="line"/>
      <point x="516.542" y="138" type="line"/>
      <point x="32.542" y="138" type="line"/>
    </contour>
  </outline>
</glyph>
<glyph name="greater" format="2">
  <advance width="590"/>
  <unicode hex="003E"/>
  <outline>
    <contour>
      <point x="130.419" y="511" type="line"/>
      <point x="516.159" y="331" type="line"/>
      <point x="493.841" y="226" type="line"/>
      <point x="31.5811" y="46" type="line"/>
      <point x="10.2998" y="167" type="line"/>
      <point x="316.894" y="278" type="line"/>
      <point x="57.7002" y="390" type="line"/>
    </contour>
  </outline>
</glyph>
<glyph name="question" format="2">
  <advance width="566"/>
  <unicode hex="003F"/>
  <outline>
    <contour>
      <point x="356.646" y="732" type="curve" smooth="yes"/>
      <point x="503.646" y="732"/>
      <point x="595.042" y="668"/>
      <point x="567.197" y="537" type="curve" smooth="yes"/>
      <point x="549.13" y="452"/>
      <point x="499.353" y="406"/>
      <point x="425.7" y="370" type="curve" smooth="yes"/>
      <point x="360.898" y="338"/>
      <point x="337.647" y="318"/>
      <point x="329.57" y="280" type="curve" smooth="yes"/>
      <point x="325.744" y="262"/>
      <point x="323.831" y="253"/>
      <point x="321.068" y="240" type="curve"/>
      <point x="142.604" y="219" type="line"/>
      <point x="140.729" y="229"/>
      <point x="140.044" y="254"/>
      <point x="145.357" y="279" type="curve" smooth="yes"/>
      <point x="156.836" y="333"/>
      <point x="179.739" y="389"/>
      <point x="267.454" y="430" type="curve" smooth="yes"/>
      <point x="358.594" y="473"/>
      <point x="372.207" y="490"/>
      <point x="378.797" y="521" type="curve" smooth="yes"/>
      <point x="387.724" y="563"/>
      <point x="354.975" y="583"/>
      <point x="302.975" y="583" type="curve" smooth="yes"/>
      <point x="249.975" y="583"/>
      <point x="184.023" y="555"/>
      <point x="148.56" y="534" type="curve"/>
      <point x="99.1289" y="659" type="line"/>
      <point x="183.332" y="707"/>
      <point x="260.646" y="732"/>
    </contour>
    <contour>
      <point x="230.716" y="196" type="curve" smooth="yes"/>
      <point x="295.716" y="196"/>
      <point x="323.663" y="144"/>
      <point x="312.609" y="92" type="curve" smooth="yes"/>
      <point x="301.344" y="39"/>
      <point x="250.354" y="-8"/>
      <point x="187.354" y="-8" type="curve" smooth="yes"/>
      <point x="121.354" y="-8"/>
      <point x="97.7695" y="41"/>
      <point x="108.609" y="92" type="curve" smooth="yes"/>
      <point x="119.45" y="143"/>
      <point x="163.716" y="196"/>
    </contour>
  </outline>
</glyph>
<glyph name="at" format="2">
  <advance width="1022"/>
  <unicode hex="0040"/>
  <outline>
    <contour>
      <point x="612.327" y="824" type="curve" smooth="yes"/>
      <point x="888.327" y="824"/>
      <point x="1044.07" y="644"/>
      <point x="989.652" y="388" type="curve" smooth="yes"/>
      <point x="972.223" y="306"/>
      <point x="916.691" y="200"/>
      <point x="863.851" y="149" type="curve"/>
      <point x="719.837" y="116" type="line"/>
      <point x="633" y="207" type="line"/>
      <point x="593" y="148"/>
      <point x="530" y="116"/>
      <point x="464" y="116" type="curve" smooth="yes"/>
      <point x="351" y="116"/>
      <point x="266" y="208"/>
      <point x="266" y="325" type="curve" smooth="yes"/>
      <point x="266" y="476"/>
      <point x="355" y="577"/>
      <point x="489" y="577" type="curve" smooth="yes"/>
      <point x="535" y="577"/>
      <point x="578" y="550"/>
      <point x="604" y="509" type="curve"/>
      <point x="643" y="569" type="line"/>
      <point x="759" y="569" type="line"/>
      <point x="711" y="303" type="line"/>
      <point x="775.319" y="250" type="line"/>
      <point x="799.846" y="276"/>
      <point x="825.324" y="330"/>
      <point x="835.102" y="376" type="curve" smooth="yes"/>
      <point x="877.4" y="575"/>
      <point x="784.206" y="687"/>
      <point x="575.206" y="687" type="curve" smooth="yes"/>
      <point x="391.206" y="687"/>
      <point x="214.748" y="539"/>
      <point x="175" y="352" type="curve" smooth="yes"/>
      <point x="129.513" y="138"/>
      <point x="223.943" y="13"/>
      <point x="428.943" y="13" type="curve" smooth="yes"/>
      <point x="533.943" y="13"/>
      <point x="649.895" y="41"/>
      <point x="672.383" y="48" type="curve"/>
      <point x="642.625" y="-92" type="line"/>
      <point x="619.35" y="-98"/>
      <point x="514.673" y="-120"/>
      <point x="396.673" y="-120" type="curve" smooth="yes"/>
      <point x="94.6729" y="-120"/>
      <point x="-40.6172" y="48"/>
      <point x="22.7246" y="346" type="curve" smooth="yes"/>
      <point x="82.666" y="628"/>
      <point x="324.327" y="824"/>
    </contour>
    <contour>
      <point x="511" y="447" type="curve" smooth="yes"/>
      <point x="458" y="447"/>
      <point x="426" y="398"/>
      <point x="426" y="330" type="curve" smooth="yes"/>
      <point x="426" y="274"/>
      <point x="451" y="250"/>
      <point x="495" y="250" type="curve" smooth="yes"/>
      <point x="533" y="250"/>
      <point x="563" y="285"/>
      <point x="571" y="337" type="curve" smooth="yes"/>
      <point x="582" y="412" type="line"/>
      <point x="568" y="429"/>
      <point x="542" y="447"/>
    </contour>
  </outline>
</glyph>
<glyph name="A" format="2">
  <advance width="696"/>
  <unicode hex="0041"/>
  <anchor x="446.954" y="876" name="AccentCenter"/>
  <outline>
    <contour>
      <point x="306.245" y="708" type="line"/>
      <point x="542.245" y="708" type="line"/>
      <point x="616.755" y="0" type="line"/>
      <point x="427.755" y="0" type="line"/>
      <point x="417.276" y="153" type="line"/>
      <point x="198.276" y="153" type="line"/>
      <point x="120.755" y="0" type="line"/>
      <point x="-71.2451" y="0" type="line"/>
    </contour>
    <contour>
      <point x="384.984" y="528" type="line"/>
      <point x="268.034" y="293" type="line"/>
      <point x="408.034" y="293" type="line"/>
      <point x="392.984" y="528" type="line"/>
    </contour>
  </outline>
</glyph>
<glyph name="B" format="2">
  <advance width="673"/>
  <unicode hex="0042"/>
  <outline>
    <contour>
      <point x="139.245" y="708" type="line"/>
      <point x="458.245" y="708" type="line" smooth="yes"/>
      <point x="582.245" y="708"/>
      <point x="671.216" y="642"/>
      <point x="647.622" y="531" type="curve" smooth="yes"/>
      <point x="627.43" y="436"/>
      <point x="573.652" y="390"/>
      <point x="512.039" y="373" type="curve"/>
      <point x="591.425" y="356"/>
      <point x="631.647" y="310"/>
      <point x="607.416" y="196" type="curve" smooth="yes"/>
      <point x="577.658" y="56"/>
      <point x="443.755" y="0"/>
      <point x="327.755" y="0" type="curve" smooth="yes"/>
      <point x="-11.2451" y="0" type="line"/>
    </contour>
    <contour>
      <point x="297.236" y="548" type="line"/>
      <point x="273.643" y="437" type="line"/>
      <point x="367.643" y="437" type="line" smooth="yes"/>
      <point x="411.643" y="437"/>
      <point x="439.681" y="456"/>
      <point x="447.758" y="494" type="curve" smooth="yes"/>
      <point x="454.984" y="528"/>
      <point x="436.236" y="548"/>
      <point x="392.236" y="548" type="curve" smooth="yes"/>
    </contour>
    <contour>
      <point x="243.884" y="297" type="line"/>
      <point x="214.764" y="160" type="line"/>
      <point x="320.764" y="160" type="line" smooth="yes"/>
      <point x="376.764" y="160"/>
      <point x="411.803" y="179"/>
      <point x="422.218" y="228" type="curve" smooth="yes"/>
      <point x="433.059" y="279"/>
      <point x="406.884" y="297"/>
      <point x="346.884" y="297" type="curve" smooth="yes"/>
    </contour>
  </outline>
</glyph>
<glyph name="C" format="2">
  <advance width="665"/>
  <unicode hex="0043"/>
  <outline>
    <contour>
      <point x="444" y="716" type="curve" smooth="yes"/>
      <point x="557" y="716"/>
      <point x="618" y="689"/>
      <point x="693" y="620" type="curve"/>
      <point x="585" y="503" type="line"/>
      <point x="544" y="544"/>
      <point x="506" y="564"/>
      <point x="435" y="564" type="curve" smooth="yes"/>
      <point x="330" y="564"/>
      <point x="224" y="488"/>
      <point x="224" y="293" type="curve" smooth="yes"/>
      <point x="224" y="218"/>
      <point x="247" y="144"/>
      <point x="361" y="144" type="curve" smooth="yes"/>
      <point x="416" y="144"/>
      <point x="485" y="161"/>
      <point x="555" y="208" type="curve"/>
      <point x="608" y="75" type="line"/>
      <point x="541" y="28"/>
      <point x="440" y="-8"/>
      <point x="304" y="-8" type="curve" smooth="yes"/>
      <point x="107" y="-8"/>
      <point x="32" y="133"/>
      <point x="32" y="287" type="curve" smooth="yes"/>
      <point x="32" y="582"/>
      <point x="257" y="716"/>
    </contour>
  </outline>
</glyph>
<glyph name="D" format="2">
  <advance width="695"/>
  <unicode hex="0044"/>
  <outline>
    <contour>
      <point x="297.236" y="548" type="line"/>
      <point x="214.764" y="160" type="line"/>
      <point x="262.764" y="160" type="line" smooth="yes"/>
      <point x="381.764" y="160"/>
      <point x="443.793" y="226"/>
      <point x="472.488" y="361" type="curve" smooth="yes"/>
      <point x="499.907" y="490"/>
      <point x="460.236" y="548"/>
      <point x="347.236" y="548" type="curve" smooth="yes"/>
    </contour>
    <contour>
      <point x="139.245" y="708" type="line"/>
      <point x="403.245" y="708" type="line" smooth="yes"/>
      <point x="617.245" y="708"/>
      <point x="708.062" y="566"/>
      <point x="664.488" y="361" type="curve" smooth="yes"/>
      <point x="617.088" y="138"/>
      <point x="465.755" y="0"/>
      <point x="248.755" y="0" type="curve" smooth="yes"/>
      <point x="-11.2451" y="0" type="line"/>
    </contour>
  </outline>
</glyph>
<glyph name="E" format="2">
  <advance width="662"/>
  <unicode hex="0045"/>
  <anchor x="450.805" y="880" name="AccentCenter"/>
  <outline>
    <contour>
      <point x="139.245" y="708" type="line"/>
      <point x="659.245" y="708" type="line"/>
      <point x="625.236" y="548" type="line"/>
      <point x="297.236" y="548" type="line"/>
      <point x="273.854" y="438" type="line"/>
      <point x="529.854" y="438" type="line"/>
      <point x="497.972" y="288" type="line"/>
      <point x="241.972" y="288" type="line"/>
      <point x="214.764" y="160" type="line"/>
      <point x="556.764" y="160" type="line"/>
      <point x="522.755" y="0" type="line"/>
      <point x="-11.2451" y="0" type="line"/>
    </contour>
  </outline>
</glyph>
<glyph name="F" format="2">
  <advance width="597"/>
  <unicode hex="0046"/>
  <outline>
    <contour>
      <point x="139.245" y="708" type="line"/>
      <point x="656.245" y="708" type="line"/>
      <point x="621.173" y="543" type="line"/>
      <point x="296.173" y="543" type="line"/>
      <point x="271.092" y="425" type="line"/>
      <point x="498.092" y="425" type="line"/>
      <point x="466.208" y="275" type="line"/>
      <point x="239.208" y="275" type="line"/>
      <point x="180.755" y="0" type="line"/>
      <point x="-11.2451" y="0" type="line"/>
    </contour>
  </outline>
</glyph>
<glyph name="G" format="2">
  <advance width="700"/>
  <unicode hex="0047"/>
  <outline>
    <contour>
      <point x="459.945" y="716" type="curve" smooth="yes"/>
      <point x="552.945" y="716"/>
      <point x="630.907" y="697"/>
      <point x="703.391" y="624" type="curve"/>
      <point x="590.096" y="505" type="line"/>
      <point x="546.173" y="543"/>
      <point x="512.999" y="561"/>
      <point x="434.999" y="561" type="curve" smooth="yes"/>
      <point x="328.999" y="561"/>
      <point x="249.932" y="476"/>
      <point x="222.938" y="349" type="curve" smooth="yes"/>
      <point x="191.904" y="203"/>
      <point x="248.15" y="143"/>
      <point x="362.15" y="143" type="curve" smooth="yes"/>
      <point x="396.15" y="143"/>
      <point x="423.001" y="147"/>
      <point x="430.213" y="148" type="curve"/>
      <point x="458.696" y="282" type="line"/>
      <point x="346.696" y="282" type="line"/>
      <point x="376.241" y="421" type="line"/>
      <point x="666.241" y="421" type="line"/>
      <point x="583.77" y="33" type="line"/>
      <point x="534.519" y="13"/>
      <point x="435.055" y="-8"/>
      <point x="318.055" y="-8" type="curve" smooth="yes"/>
      <point x="98.0547" y="-8"/>
      <point x="-17.3135" y="122"/>
      <point x="31.5752" y="352" type="curve" smooth="yes"/>
      <point x="79.1875" y="576"/>
      <point x="244.945" y="716"/>
    </contour>
  </outline>
</glyph>
<glyph name="H" format="2">
  <advance width="716"/>
  <unicode hex="0048"/>
  <outline>
    <contour>
      <point x="139.245" y="708" type="line"/>
      <point x="331.245" y="708" type="line"/>
      <point x="276.618" y="451" type="line"/>
      <point x="480.618" y="451" type="line"/>
      <point x="535.245" y="708" type="line"/>
      <point x="727.245" y="708" type="line"/>
      <point x="576.755" y="0" type="line"/>
      <point x="384.755" y="0" type="line"/>
      <point x="444.483" y="281" type="line"/>
      <point x="240.483" y="281" type="line"/>
      <point x="180.755" y="0" type="line"/>
      <point x="-11.2451" y="0" type="line"/>
    </contour>
  </outline>
</glyph>
<glyph name="I" format="2">
  <advance width="320"/>
  <unicode hex="0049"/>
  <anchor x="268.805" y="880" name="AccentCenter"/>
  <outline>
    <contour>
      <point x="139.245" y="708" type="line"/>
      <point x="331.245" y="708" type="line"/>
      <point x="180.755" y="0" type="line"/>
      <point x="-11.2451" y="0" type="line"/>
    </contour>
  </outline>
</glyph>
<glyph name="J" format="2">
  <advance width="460"/>
  <unicode hex="004A"/>
  <outline>
    <contour>
      <point x="204" y="708" type="line"/>
      <point x="396" y="708" type="line"/>
      <point x="396" y="276" type="line" smooth="yes"/>
      <point x="396" y="80"/>
      <point x="288" y="-8"/>
      <point x="140" y="-8" type="curve" smooth="yes"/>
      <point x="80" y="-8"/>
      <point x="25" y="3"/>
      <point x="16" y="5" type="curve"/>
      <point x="28.3211" y="155" type="line"/>
      <point x="112" y="151" type="line" smooth="yes"/>
      <point x="173.929" y="148.039"/>
      <point x="204" y="190"/>
      <point x="204" y="273" type="curve" smooth="yes"/>
    </contour>
  </outline>
</glyph>
<glyph name="L" format="2">
  <advance width="552"/>
  <unicode hex="004C"/>
  <outline>
    <contour>
      <point x="162" y="708" type="line"/>
      <point x="354" y="708" type="line"/>
      <point x="238" y="160" type="line"/>
      <point x="534" y="160" type="line"/>
      <point x="500" y="0" type="line"/>
      <point x="12" y="0" type="line"/>
    </contour>
  </outline>
</glyph>
<glyph name="M" format="2">
  <advance width="840"/>
  <unicode hex="004D"/>
  <outline>
    <contour>
      <point x="139.245" y="708" type="line"/>
      <point x="331.245" y="708" type="line"/>
      <point x="420.188" y="369" type="line"/>
      <point x="659.245" y="708" type="line"/>
      <point x="851.245" y="708" type="line"/>
      <point x="700.755" y="0" type="line"/>
      <point x="508.755" y="0" type="line"/>
      <point x="585.062" y="359" type="line"/>
      <point x="444.213" y="148" type="line"/>
      <point x="310.213" y="148" type="line"/>
      <point x="257.062" y="359" type="line"/>
      <point x="180.755" y="0" type="line"/>
      <point x="-11.2451" y="0" type="line"/>
    </contour>
  </outline>
</glyph>
<glyph name="N" format="2">
  <advance width="757"/>
  <unicode hex="004E"/>
  <outline>
    <contour>
      <point x="139.245" y="708" type="line"/>
      <point x="331.245" y="708" type="line"/>
      <point x="496.324" y="332" type="line"/>
      <point x="576.245" y="708" type="line"/>
      <point x="768.245" y="708" type="line"/>
      <point x="617.755" y="0" type="line"/>
      <point x="425.755" y="0" type="line"/>
      <point x="264.928" y="396" type="line"/>
      <point x="180.755" y="0" type="line"/>
      <point x="-11.2451" y="0" type="line"/>
    </contour>
  </outline>
</glyph>
<glyph name="O" format="2">
  <advance width="720"/>
  <unicode hex="004F"/>
  <anchor x="472.954" y="876" name="AccentCenter"/>
  <outline>
    <contour>
      <point x="437.945" y="716" type="curve" smooth="yes"/>
      <point x="642.945" y="716"/>
      <point x="736.038" y="580"/>
      <point x="688.638" y="357" type="curve" smooth="yes"/>
      <point x="640.6" y="131"/>
      <point x="485.055" y="-8"/>
      <point x="283.055" y="-8" type="curve" smooth="yes"/>
      <point x="81.0547" y="-8"/>
      <point x="-15.1875" y="132"/>
      <point x="32.6377" y="357" type="curve" smooth="yes"/>
      <point x="80.0381" y="580"/>
      <point x="232.945" y="716"/>
    </contour>
    <contour>
      <point x="402.937" y="556" type="curve" smooth="yes"/>
      <point x="314.937" y="556"/>
      <point x="251.633" y="484"/>
      <point x="224.638" y="357" type="curve" smooth="yes"/>
      <point x="197.005" y="227"/>
      <point x="231.063" y="152"/>
      <point x="318.063" y="152" type="curve" smooth="yes"/>
      <point x="404.063" y="152"/>
      <point x="468.793" y="226"/>
      <point x="496.425" y="356" type="curve" smooth="yes"/>
      <point x="523.633" y="484"/>
      <point x="490.937" y="556"/>
    </contour>
  </outline>
</glyph>
<glyph name="P" format="2">
  <advance width="680"/>
  <unicode hex="0050"/>
  <outline>
    <contour>
      <point x="297.236" y="548" type="line"/>
      <point x="260.676" y="376" type="line"/>
      <point x="372.676" y="376" type="line" smooth="yes"/>
      <point x="429.676" y="376"/>
      <point x="467.266" y="407"/>
      <point x="479.381" y="464" type="curve" smooth="yes"/>
      <point x="490.859" y="518"/>
      <point x="465.236" y="548"/>
      <point x="409.236" y="548" type="curve" smooth="yes"/>
    </contour>
    <contour>
      <point x="139.245" y="708" type="line"/>
      <point x="454.245" y="708" type="line" smooth="yes"/>
      <point x="620.245" y="708"/>
      <point x="703.265" y="614"/>
      <point x="671.381" y="464" type="curve" smooth="yes"/>
      <point x="637.797" y="306"/>
      <point x="514.667" y="216"/>
      <point x="330.667" y="216" type="curve" smooth="yes"/>
      <point x="226.667" y="216" type="line"/>
      <point x="180.755" y="0" type="line"/>
      <point x="-11.2451" y="0" type="line"/>
    </contour>
  </outline>
</glyph>
<glyph name="Q" format="2">
  <advance width="720"/>
  <unicode hex="0051"/>
  <outline>
    <contour>
      <point x="421.642" y="556" type="curve" smooth="yes"/>
      <point x="337.642" y="556"/>
      <point x="269.487" y="480"/>
      <point x="243.343" y="357" type="curve" smooth="yes"/>
      <point x="215.285" y="225"/>
      <point x="247.981" y="153"/>
      <point x="335.981" y="153" type="curve" smooth="yes"/>
      <point x="422.981" y="153"/>
      <point x="487.498" y="226"/>
      <point x="515.343" y="357" type="curve" smooth="yes"/>
      <point x="543.188" y="488"/>
      <point x="510.642" y="556"/>
    </contour>
    <contour>
      <point x="455.65" y="716" type="curve" smooth="yes"/>
      <point x="657.65" y="716"/>
      <point x="754.317" y="578"/>
      <point x="707.343" y="357" type="curve" smooth="yes"/>
      <point x="666.532" y="165"/>
      <point x="540.049" y="31"/>
      <point x="376.46" y="0" type="curve"/>
      <point x="381.209" y="-20"/>
      <point x="404.233" y="-34"/>
      <point x="434.233" y="-34" type="curve" smooth="yes"/>
      <point x="546.233" y="-34" type="line"/>
      <point x="529.625" y="-178" type="line"/>
      <point x="480.774" y="-182"/>
      <point x="422.35" y="-184"/>
      <point x="388.35" y="-184" type="curve" smooth="yes"/>
      <point x="254.35" y="-184"/>
      <point x="188.229" y="-114"/>
      <point x="208.522" y="5" type="curve"/>
      <point x="72.8125" y="44"/>
      <point x="12.4443" y="174"/>
      <point x="51.3428" y="357" type="curve" smooth="yes"/>
      <point x="98.1055" y="577"/>
      <point x="254.65" y="716"/>
    </contour>
  </outline>
</glyph>
<glyph name="R" format="2">
  <advance width="688"/>
  <unicode hex="0052"/>
  <outline>
    <contour>
      <point x="139.245" y="708" type="line"/>
      <point x="443.245" y="708" type="line" smooth="yes"/>
      <point x="623.245" y="708"/>
      <point x="694.627" y="611"/>
      <point x="664.656" y="470" type="curve" smooth="yes"/>
      <point x="635.749" y="334"/>
      <point x="557.059" y="279"/>
      <point x="469.981" y="241" type="curve"/>
      <point x="596.755" y="0" type="line"/>
      <point x="390.755" y="0" type="line"/>
      <point x="297.729" y="221" type="line"/>
      <point x="225.729" y="221" type="line"/>
      <point x="178.755" y="0" type="line"/>
      <point x="-11.2451" y="0" type="line"/>
    </contour>
    <contour>
      <point x="259.102" y="378" type="line"/>
      <point x="365.102" y="378" type="line" smooth="yes"/>
      <point x="414.102" y="378"/>
      <point x="459.266" y="407"/>
      <point x="472.231" y="468" type="curve" smooth="yes"/>
      <point x="483.71" y="522"/>
      <point x="454.661" y="550"/>
      <point x="397.661" y="550" type="curve" smooth="yes"/>
      <point x="295.661" y="550" type="line"/>
    </contour>
  </outline>
</glyph>
<glyph name="S" format="2">
  <advance width="637"/>
  <unicode hex="0053"/>
  <outline>
    <contour>
      <point x="425.945" y="716" type="curve" smooth="yes"/>
      <point x="524.945" y="716"/>
      <point x="596.994" y="688"/>
      <point x="665.178" y="623" type="curve"/>
      <point x="559.884" y="504" type="line"/>
      <point x="522.473" y="535"/>
      <point x="476.212" y="562"/>
      <point x="395.212" y="562" type="curve" smooth="yes"/>
      <point x="321.212" y="562"/>
      <point x="281.686" y="536"/>
      <point x="273.183" y="496" type="curve" smooth="yes"/>
      <point x="264.681" y="456"/>
      <point x="279.705" y="442"/>
      <point x="356.154" y="430" type="curve" smooth="yes"/>
      <point x="397.092" y="425" type="line"/>
      <point x="557.777" y="400"/>
      <point x="607.049" y="326"/>
      <point x="581.967" y="208" type="curve" smooth="yes"/>
      <point x="552.209" y="68"/>
      <point x="439.055" y="-8"/>
      <point x="225.055" y="-8" type="curve" smooth="yes"/>
      <point x="123.055" y="-8"/>
      <point x="5.13184" y="30"/>
      <point x="-35.3037" y="75" type="curve"/>
      <point x="70.9043" y="203" type="line"/>
      <point x="119.552" y="159"/>
      <point x="180.301" y="139"/>
      <point x="263.301" y="139" type="curve" smooth="yes"/>
      <point x="345.301" y="139"/>
      <point x="384.189" y="162"/>
      <point x="392.691" y="202" type="curve" smooth="yes"/>
      <point x="401.831" y="245"/>
      <point x="384.295" y="266"/>
      <point x="297.421" y="276" type="curve" smooth="yes"/>
      <point x="262.271" y="280" type="line" smooth="yes"/>
      <point x="116.672" y="296"/>
      <point x="58.251" y="374"/>
      <point x="86.0957" y="505" type="curve" smooth="yes"/>
      <point x="113.941" y="636"/>
      <point x="231.945" y="716"/>
    </contour>
  </outline>
</glyph>
<glyph name="U" format="2">
  <advance width="732"/>
  <unicode hex="0055"/>
  <anchor x="466.549" y="880" name="AccentCenter"/>
  <outline>
    <contour>
      <point x="139.989" y="708" type="line"/>
      <point x="331.989" y="708" type="line"/>
      <point x="245.054" y="299" type="line"/>
      <point x="225.711" y="208"/>
      <point x="243.021" y="153"/>
      <point x="324.021" y="153" type="curve" smooth="yes"/>
      <point x="405.021" y="153"/>
      <point x="445.711" y="208"/>
      <point x="465.054" y="299" type="curve"/>
      <point x="551.989" y="708" type="line"/>
      <point x="743.989" y="708" type="line"/>
      <point x="653.228" y="281" type="line"/>
      <point x="610.504" y="80"/>
      <point x="460.011" y="-7"/>
      <point x="289.011" y="-7" type="curve" smooth="yes"/>
      <point x="107.011" y="-7"/>
      <point x="6.50391" y="80"/>
      <point x="49.6523" y="283" type="curve"/>
    </contour>
  </outline>
</glyph>
<glyph name="V" format="2">
  <advance width="699"/>
  <unicode hex="0056"/>
  <outline>
    <contour>
      <point x="83.2451" y="708" type="line"/>
      <point x="276.245" y="708" type="line"/>
      <point x="319.455" y="215" type="line"/>
      <point x="573.245" y="708" type="line"/>
      <point x="766.245" y="708" type="line"/>
      <point x="376.755" y="0" type="line"/>
      <point x="170.755" y="0" type="line"/>
    </contour>
  </outline>
</glyph>
<glyph name="W" format="2">
  <advance width="898"/>
  <unicode hex="0057"/>
  <outline>
    <contour>
      <point x="83.2451" y="708" type="line"/>
      <point x="259.245" y="708" type="line"/>
      <point x="244.005" y="227" type="line"/>
      <point x="439.245" y="708" type="line"/>
      <point x="617.245" y="708" type="line"/>
      <point x="602.493" y="234" type="line"/>
      <point x="789.245" y="708" type="line"/>
      <point x="965.245" y="708" type="line"/>
      <point x="651.755" y="0" type="line"/>
      <point x="451.755" y="0" type="line"/>
      <point x="449.662" y="343" type="line"/>
      <point x="299.755" y="0" type="line"/>
      <point x="95.7549" y="0" type="line"/>
    </contour>
  </outline>
</glyph>
<glyph name="X" format="2">
  <advance width="718"/>
  <unicode hex="0058"/>
  <outline>
    <contour>
      <point x="83.2451" y="708" type="line"/>
      <point x="285.245" y="708" type="line"/>
      <point x="381.594" y="465" type="line"/>
      <point x="582.245" y="708" type="line"/>
      <point x="785.245" y="708" type="line"/>
      <point x="475" y="354" type="line"/>
      <point x="634.755" y="0" type="line"/>
      <point x="431.755" y="0" type="line"/>
      <point x="334.619" y="244" type="line"/>
      <point x="134.755" y="0" type="line"/>
      <point x="-67.2451" y="0" type="line"/>
      <point x="233" y="354" type="line"/>
    </contour>
  </outline>
</glyph>
<glyph name="Y" format="2">
  <advance width="655"/>
  <unicode hex="0059"/>
  <anchor x="437.805" y="880" name="AccentCenter"/>
  <outline>
    <contour>
      <point x="83.2451" y="708" type="line"/>
      <point x="267.245" y="708" type="line"/>
      <point x="340.053" y="406" type="line"/>
      <point x="537.245" y="708" type="line"/>
      <point x="722.245" y="708" type="line"/>
      <point x="406.146" y="270" type="line"/>
      <point x="348.755" y="0" type="line"/>
      <point x="156.755" y="0" type="line"/>
      <point x="213.933" y="269" type="line"/>
    </contour>
  </outline>
</glyph>
<glyph name="Z" format="2">
  <advance width="694"/>
  <unicode hex="005A"/>
  <outline>
    <contour>
      <point x="139.245" y="708" type="line"/>
      <point x="705.245" y="708" type="line"/>
      <point x="678.038" y="580" type="line"/>
      <point x="260.764" y="160" type="line"/>
      <point x="588.764" y="160" type="line"/>
      <point x="554.755" y="0" type="line"/>
      <point x="-11.2451" y="0" type="line"/>
      <point x="15.9619" y="128" type="line"/>
      <point x="436.236" y="548" type="line"/>
      <point x="105.236" y="548" type="line"/>
    </contour>
  </outline>
</glyph>
<glyph name="bracketleft" format="2">
  <advance width="382"/>
  <unicode hex="005B"/>
  <outline>
    <contour>
      <point x="154.844" y="819" type="line"/>
      <point x="444.844" y="819" type="line"/>
      <point x="414.235" y="675" type="line"/>
      <point x="284.235" y="675" type="line"/>
      <point x="157.765" y="80" type="line"/>
      <point x="287.765" y="80" type="line"/>
      <point x="257.156" y="-64" type="line"/>
      <point x="-32.8438" y="-64" type="line"/>
    </contour>
  </outline>
</glyph>
<glyph name="backslash" format="2">
  <advance width="434"/>
  <unicode hex="005C"/>
  <outline>
    <contour>
      <point x="55.2686" y="772" type="line"/>
      <point x="224.269" y="772" type="line"/>
      <point x="378.731" y="-115" type="line"/>
      <point x="209.731" y="-115" type="line"/>
    </contour>
  </outline>
</glyph>
<glyph name="bracketright" format="2">
  <advance width="382"/>
  <unicode hex="005D"/>
  <outline>
    <contour>
      <point x="124.844" y="819" type="line"/>
      <point x="414.844" y="819" type="line"/>
      <point x="227.156" y="-64" type="line"/>
      <point x="-62.8438" y="-64" type="line"/>
      <point x="-32.2354" y="80" type="line"/>
      <point x="97.7646" y="80" type="line"/>
      <point x="224.235" y="675" type="line"/>
      <point x="94.2354" y="675" type="line"/>
    </contour>
  </outline>
</glyph>
<glyph name="underscore" format="2">
  <advance width="591"/>
  <unicode hex="005F"/>
  <outline>
    <contour>
      <point x="75.4785" y="0" type="line"/>
      <point x="538.479" y="0" type="line"/>
      <point x="515.521" y="-108" type="line"/>
      <point x="52.5215" y="-108" type="line"/>
    </contour>
  </outline>
</glyph>
<glyph name="a" format="2">
  <advance width="581"/>
  <unicode hex="0061"/>
  <anchor x="283" y="687" name="AccentCenter"/>
  <anchor x="281" y="687" name="Ring"/>
  <outline>
    <contour>
      <point x="251" y="528" type="curve" smooth="yes"/>
      <point x="418" y="528"/>
      <point x="493" y="452"/>
      <point x="493" y="307" type="curve" smooth="yes"/>
      <point x="493" y="117" type="line"/>
      <point x="565" y="109" type="line"/>
      <point x="556" y="-8" type="line"/>
      <point x="347" y="7" type="line"/>
      <point x="328" y="61" type="line"/>
      <point x="292" y="21"/>
      <point x="267" y="-8"/>
      <point x="183" y="-8" type="curve" smooth="yes"/>
      <point x="71" y="-8"/>
      <point x="32" y="58"/>
      <point x="32" y="156" type="curve" smooth="yes"/>
      <point x="32" y="265"/>
      <point x="116" y="316"/>
      <point x="247" y="316" type="curve" smooth="yes"/>
      <point x="311" y="316" type="line"/>
      <point x="311" y="333" type="line" smooth="yes"/>
      <point x="311" y="381"/>
      <point x="283" y="406"/>
      <point x="223" y="406" type="curve" smooth="yes"/>
      <point x="178" y="406"/>
      <point x="138" y="389"/>
      <point x="113" y="374" type="curve"/>
      <point x="60" y="482" type="line"/>
      <point x="119" y="512"/>
      <point x="172" y="528"/>
    </contour>
    <contour>
      <point x="311" y="205" type="line"/>
      <point x="268" y="205" type="line" smooth="yes"/>
      <point x="236" y="205"/>
      <point x="216" y="192"/>
      <point x="216" y="163" type="curve" smooth="yes"/>
      <point x="216" y="135"/>
      <point x="230" y="118"/>
      <point x="259" y="118" type="curve" smooth="yes"/>
      <point x="285" y="118"/>
      <point x="300" y="127"/>
      <point x="311" y="146" type="curve"/>
    </contour>
  </outline>
</glyph>
<glyph name="b" format="2">
  <advance width="587"/>
  <unicode hex="0062"/>
  <outline>
    <contour>
      <point x="140.945" y="716" type="line"/>
      <point x="328.945" y="716" type="line"/>
      <point x="276.231" y="468" type="line"/>
      <point x="304" y="510"/>
      <point x="335" y="528"/>
      <point x="399" y="528" type="curve" smooth="yes"/>
      <point x="514" y="528"/>
      <point x="571" y="436"/>
      <point x="571" y="319" type="curve" smooth="yes"/>
      <point x="571" y="79"/>
      <point x="427" y="-8"/>
      <point x="266" y="-8" type="curve" smooth="yes"/>
      <point x="125" y="-8"/>
      <point x="54" y="49"/>
      <point x="14" y="123" type="curve"/>
    </contour>
    <contour>
      <point x="320" y="388" type="curve" smooth="yes"/>
      <point x="287" y="388"/>
      <point x="269" y="372"/>
      <point x="250" y="343" type="curve"/>
      <point x="212" y="165" type="line"/>
      <point x="224" y="142"/>
      <point x="240" y="128"/>
      <point x="284" y="128" type="curve" smooth="yes"/>
      <point x="332" y="128"/>
      <point x="378" y="205"/>
      <point x="378" y="314" type="curve" smooth="yes"/>
      <point x="378" y="359"/>
      <point x="357" y="388"/>
    </contour>
  </outline>
</glyph>
<glyph name="c" format="2">
  <advance width="523"/>
  <unicode hex="0063"/>
  <guideline x="0" y="260" angle="0" name="ItalicCenter" identifier="fontra-guideline-0"/>
  <outline>
    <contour>
      <point x="351" y="528" type="curve" smooth="yes"/>
      <point x="414" y="528"/>
      <point x="476" y="516"/>
      <point x="532" y="476" type="curve"/>
      <point x="460" y="364" type="line"/>
      <point x="430" y="385"/>
      <point x="400" y="396"/>
      <point x="357" y="396" type="curve" smooth="yes"/>
      <point x="250" y="396"/>
      <point x="219" y="317"/>
      <point x="219" y="239" type="curve" smooth="yes"/>
      <point x="219" y="177"/>
      <point x="250" y="129"/>
      <point x="322" y="129" type="curve" smooth="yes"/>
      <point x="380" y="129"/>
      <point x="407" y="147"/>
      <point x="433" y="165" type="curve"/>
      <point x="486" y="43" type="line"/>
      <point x="439" y="17"/>
      <point x="387" y="-8"/>
      <point x="284" y="-8" type="curve" smooth="yes"/>
      <point x="103" y="-8"/>
      <point x="32" y="83"/>
      <point x="32" y="226" type="curve" smooth="yes"/>
      <point x="32" y="389"/>
      <point x="146" y="528"/>
    </contour>
  </outline>
</glyph>
<glyph name="d" format="2">
  <advance width="641"/>
  <unicode hex="0064"/>
  <guideline x="0" y="260" angle="0" name="ItalicCenter" identifier="fontra-guideline-0"/>
  <outline>
    <contour>
      <point x="486" y="716" type="line"/>
      <point x="674" y="716" type="line"/>
      <point x="521" y="0" type="line"/>
      <point x="334" y="0" type="line"/>
      <point x="353" y="78" type="line"/>
      <point x="330" y="39"/>
      <point x="286" y="-8"/>
      <point x="205" y="-8" type="curve" smooth="yes"/>
      <point x="82" y="-8"/>
      <point x="28" y="89"/>
      <point x="28" y="203" type="curve" smooth="yes"/>
      <point x="28" y="393"/>
      <point x="152" y="528"/>
      <point x="318" y="528" type="curve" smooth="yes"/>
      <point x="368" y="528"/>
      <point x="408" y="511"/>
      <point x="433" y="468" type="curve"/>
    </contour>
    <contour>
      <point x="342" y="388" type="curve" smooth="yes"/>
      <point x="276" y="388"/>
      <point x="220" y="330"/>
      <point x="220" y="217" type="curve" smooth="yes"/>
      <point x="220" y="158"/>
      <point x="248" y="128"/>
      <point x="288" y="128" type="curve" smooth="yes"/>
      <point x="332" y="128"/>
      <point x="348" y="148"/>
      <point x="371" y="176" type="curve"/>
      <point x="405" y="336" type="line"/>
      <point x="393" y="375"/>
      <point x="375" y="388"/>
    </contour>
  </outline>
</glyph>
<glyph name="e" format="2">
  <advance width="552"/>
  <unicode hex="0065"/>
  <guideline x="0" y="260" angle="0" name="ItalicCenter" identifier="fontra-guideline-0"/>
  <anchor x="401.549" y="686" name="AccentCenter"/>
  <outline>
    <contour>
      <point x="312" y="528" type="curve" smooth="yes"/>
      <point x="442" y="528"/>
      <point x="539" y="468"/>
      <point x="539" y="339" type="curve" smooth="yes"/>
      <point x="539" y="312"/>
      <point x="533" y="293"/>
      <point x="526" y="275" type="curve"/>
      <point x="207" y="207" type="line"/>
      <point x="206" y="160"/>
      <point x="249" y="121"/>
      <point x="306" y="121" type="curve" smooth="yes"/>
      <point x="357" y="121"/>
      <point x="406" y="129"/>
      <point x="456" y="155" type="curve"/>
      <point x="473" y="36" type="line"/>
      <point x="400" y="3"/>
      <point x="345" y="-8"/>
      <point x="253" y="-8" type="curve" smooth="yes"/>
      <point x="117" y="-8"/>
      <point x="12" y="66"/>
      <point x="12" y="220" type="curve" smooth="yes"/>
      <point x="12" y="377"/>
      <point x="134" y="528"/>
    </contour>
    <contour>
      <point x="307" y="409" type="curve" smooth="yes"/>
      <point x="260" y="409"/>
      <point x="213" y="363"/>
      <point x="211" y="304" type="curve"/>
      <point x="363" y="337" type="line"/>
      <point x="363" y="347" type="line" smooth="yes"/>
      <point x="363" y="387"/>
      <point x="342" y="409"/>
    </contour>
  </outline>
</glyph>
<glyph name="f" format="2">
  <advance width="460"/>
  <unicode hex="0066"/>
  <outline>
    <contour>
      <point x="397.796" y="732" type="curve" smooth="yes"/>
      <point x="453.796" y="732"/>
      <point x="496.158" y="729"/>
      <point x="512.733" y="727" type="curve"/>
      <point x="472.951" y="601" type="line"/>
      <point x="422.801" y="605" type="line"/>
      <point x="379.801" y="605"/>
      <point x="354.975" y="587"/>
      <point x="344.56" y="538" type="curve" smooth="yes"/>
      <point x="340.733" y="520" type="line"/>
      <point x="456.733" y="520" type="line"/>
      <point x="424.851" y="370" type="line"/>
      <point x="308.851" y="370" type="line"/>
      <point x="222" y="-41" type="line"/>
      <point x="85" y="-218" type="line"/>
      <point x="-71" y="-131" type="line"/>
      <point x="38.2041" y="0" type="line"/>
      <point x="116.851" y="370" type="line"/>
      <point x="24.8506" y="370" type="line"/>
      <point x="56.7334" y="520" type="line"/>
      <point x="148.733" y="520" type="line"/>
      <point x="153.41" y="542" type="line" smooth="yes"/>
      <point x="178.917" y="662"/>
      <point x="258.796" y="732"/>
    </contour>
  </outline>
</glyph>
<glyph name="g" format="2">
  <advance width="620"/>
  <unicode hex="0067"/>
  <outline>
    <contour>
      <point x="340.521" y="528" type="curve" smooth="yes"/>
      <point x="424.521" y="528"/>
      <point x="470.057" y="507"/>
      <point x="494.019" y="488" type="curve"/>
      <point x="644.82" y="520" type="line"/>
      <point x="667.82" y="520" type="line"/>
      <point x="636.85" y="379" type="line"/>
      <point x="536.85" y="379" type="line"/>
      <point x="539.574" y="373"/>
      <point x="539.11" y="352"/>
      <point x="536.135" y="338" type="curve" smooth="yes"/>
      <point x="514.666" y="237"/>
      <point x="413.338" y="179"/>
      <point x="298.338" y="179" type="curve" smooth="yes"/>
      <point x="272.338" y="179"/>
      <point x="257.551" y="180"/>
      <point x="257.551" y="180" type="curve"/>
      <point x="217.599" y="152" type="line"/>
      <point x="408.623" y="138" type="line" smooth="yes"/>
      <point x="528.71" y="129"/>
      <point x="581.082" y="79"/>
      <point x="562.165" y="-10" type="curve" smooth="yes"/>
      <point x="531.981" y="-152"/>
      <point x="406.479" y="-192"/>
      <point x="232.479" y="-192" type="curve" smooth="yes"/>
      <point x="107.479" y="-192"/>
      <point x="18.3057" y="-174"/>
      <point x="-48.042" y="-138" type="curve"/>
      <point x="-31.4629" y="-60" type="line"/>
      <point x="80.9668" y="22" type="line"/>
      <point x="-3.54492" y="29" type="line"/>
      <point x="16.2227" y="122" type="line"/>
      <point x="134.502" y="208" type="line"/>
      <point x="84.7529" y="228"/>
      <point x="57.6562" y="284"/>
      <point x="72.5352" y="354" type="curve" smooth="yes"/>
      <point x="95.7041" y="463"/>
      <point x="198.521" y="528"/>
    </contour>
    <contour>
      <point x="241.416" y="10" type="line"/>
      <point x="161.812" y="-54" type="line"/>
      <point x="182.537" y="-60"/>
      <point x="217.199" y="-71"/>
      <point x="278.199" y="-71" type="curve" smooth="yes"/>
      <point x="334.199" y="-71"/>
      <point x="359.962" y="-58"/>
      <point x="365.276" y="-33" type="curve" smooth="yes"/>
      <point x="369.952" y="-11"/>
      <point x="360.29" y="0"/>
      <point x="328.928" y="3" type="curve" smooth="yes"/>
    </contour>
    <contour>
      <point x="318.076" y="413" type="curve" smooth="yes"/>
      <point x="285.076" y="413"/>
      <point x="262.038" y="394"/>
      <point x="253.535" y="354" type="curve" smooth="yes"/>
      <point x="245.033" y="314"/>
      <point x="259.782" y="294"/>
      <point x="292.782" y="294" type="curve" smooth="yes"/>
      <point x="326.782" y="294"/>
      <point x="350.246" y="315"/>
      <point x="358.535" y="354" type="curve" smooth="yes"/>
      <point x="366.612" y="392"/>
      <point x="352.076" y="413"/>
    </contour>
  </outline>
</glyph>
<glyph name="h" format="2">
  <advance width="653"/>
  <unicode hex="0068"/>
  <guideline x="0" y="260" angle="0" name="ItalicCenter" identifier="fontra-guideline-0"/>
  <outline>
    <contour>
      <point x="160" y="708" type="line"/>
      <point x="352" y="708" type="line"/>
      <point x="287" y="403" type="line"/>
      <point x="324" y="488"/>
      <point x="389" y="528"/>
      <point x="477" y="528" type="curve" smooth="yes"/>
      <point x="560" y="528"/>
      <point x="608" y="477"/>
      <point x="609" y="388" type="curve" smooth="yes"/>
      <point x="609" y="367"/>
      <point x="606" y="343"/>
      <point x="601" y="318" type="curve" smooth="yes"/>
      <point x="534" y="0" type="line"/>
      <point x="342" y="0" type="line"/>
      <point x="406" y="304" type="line" smooth="yes"/>
      <point x="408" y="313"/>
      <point x="408" y="317"/>
      <point x="408" y="323" type="curve" smooth="yes"/>
      <point x="408" y="353"/>
      <point x="389" y="370"/>
      <point x="366" y="370" type="curve" smooth="yes"/>
      <point x="324" y="370"/>
      <point x="299" y="339"/>
      <point x="257" y="263" type="curve"/>
      <point x="202" y="0" type="line"/>
      <point x="10" y="0" type="line"/>
    </contour>
  </outline>
</glyph>
<glyph name="i" format="2">
  <advance width="359.01717060933396"/>
  <unicode hex="0069"/>
  <guideline x="0" y="260" angle="0" name="ItalicCenter" identifier="fontra-guideline-0"/>
  <outline>
    <contour>
      <point x="301.93348199999997" y="743" type="curve" smooth="yes"/>
      <point x="354.93348199999997" y="743"/>
      <point x="391.493482" y="708"/>
      <point x="378.315482" y="646" type="curve" smooth="yes"/>
      <point x="365.987482" y="588"/>
      <point x="313.697482" y="549"/>
      <point x="260.69748200000004" y="549" type="curve" smooth="yes"/>
      <point x="207.697482" y="549"/>
      <point x="171.987482" y="588"/>
      <point x="184.315482" y="646" type="curve" smooth="yes"/>
      <point x="197.493482" y="708"/>
      <point x="248.933482" y="743"/>
    </contour>
    <component base="dotlessi" yxScale="0.212557" xOffset="-48.996318"/>
  </outline>
</glyph>
<glyph name="j" format="2">
  <advance width="330"/>
  <unicode hex="006A"/>
  <outline>
    <contour>
      <point x="125.438" y="520" type="line"/>
      <point x="317.438" y="520" type="line"/>
      <point x="211.586" y="22" type="line"/>
      <point x="180.765" y="-123"/>
      <point x="115.311" y="-191"/>
      <point x="-74.6895" y="-191" type="curve"/>
      <point x="-95.6895" y="-191" type="line"/>
      <point x="-62.3174" y="-34" type="line"/>
      <point x="-41.3174" y="-34" type="line"/>
      <point x="-5.31738" y="-34"/>
      <point x="10.6582" y="-20"/>
      <point x="18.3105" y="16" type="curve"/>
    </contour>
    <contour>
      <point x="268.689" y="747" type="curve" smooth="yes"/>
      <point x="321.689" y="747"/>
      <point x="356.549" y="704"/>
      <point x="345.283" y="651" type="curve" smooth="yes"/>
      <point x="334.019" y="598"/>
      <point x="280.666" y="554"/>
      <point x="227.666" y="554" type="curve" smooth="yes"/>
      <point x="174.666" y="554"/>
      <point x="140.019" y="598"/>
      <point x="151.283" y="651" type="curve" smooth="yes"/>
      <point x="162.549" y="704"/>
      <point x="215.689" y="747"/>
    </contour>
  </outline>
</glyph>
<glyph name="k" format="2">
  <advance width="619"/>
  <unicode hex="006B"/>
  <guideline x="0" y="260" angle="0" name="ItalicCenter" identifier="fontra-guideline-0"/>
  <outline>
    <contour>
      <point x="201" y="0" type="line"/>
      <point x="9" y="0" type="line"/>
      <point x="159" y="708" type="line"/>
      <point x="351" y="708" type="line"/>
    </contour>
    <contour>
      <point x="268" y="254" type="line"/>
      <point x="399" y="320" type="line"/>
      <point x="405" y="331"/>
      <point x="407" y="343"/>
      <point x="407" y="354" type="curve" smooth="yes"/>
      <point x="407" y="378"/>
      <point x="396" y="388"/>
      <point x="373" y="388" type="curve" smooth="yes"/>
      <point x="344" y="388"/>
      <point x="295" y="360"/>
      <point x="255" y="261" type="curve"/>
      <point x="180" y="303" type="line"/>
      <point x="234" y="453"/>
      <point x="346" y="528"/>
      <point x="458" y="528" type="curve" smooth="yes"/>
      <point x="531" y="528"/>
      <point x="587" y="485"/>
      <point x="587" y="383" type="curve" smooth="yes"/>
      <point x="587" y="327"/>
      <point x="576" y="273"/>
      <point x="553" y="239" type="curve"/>
      <point x="465" y="197" type="line"/>
      <point x="572" y="0" type="line"/>
      <point x="387" y="0" type="line"/>
    </contour>
  </outline>
</glyph>
<glyph name="l" format="2">
  <advance width="360"/>
  <unicode hex="006C"/>
  <outline>
    <contour>
      <point x="146.897" y="772" type="line"/>
      <point x="338.897" y="772" type="line"/>
      <point x="210.938" y="170" type="line" smooth="yes"/>
      <point x="204.773" y="141"/>
      <point x="215.798" y="127"/>
      <point x="244.798" y="127" type="curve"/>
      <point x="246.798" y="127"/>
      <point x="253.011" y="128"/>
      <point x="256.011" y="128" type="curve"/>
      <point x="289.861" y="132" type="line"/>
      <point x="275.016" y="1" type="line"/>
      <point x="249.166" y="-3"/>
      <point x="203.103" y="-8"/>
      <point x="166.103" y="-8" type="curve" smooth="yes"/>
      <point x="59.1025" y="-8"/>
      <point x="-5.29297" y="56"/>
      <point x="16.5996" y="159" type="curve" smooth="yes"/>
    </contour>
  </outline>
</glyph>
<glyph name="m" format="2">
  <advance width="934"/>
  <unicode hex="006D"/>
  <guideline x="0" y="260" angle="0" name="ItalicCenter" identifier="fontra-guideline-0"/>
  <outline>
    <contour>
      <point x="118.414" y="520" type="line"/>
      <point x="246.414" y="520" type="line"/>
      <point x="260" y="403" type="line"/>
      <point x="311" y="495"/>
      <point x="378.115" y="528"/>
      <point x="450" y="528" type="curve" smooth="yes"/>
      <point x="504" y="528"/>
      <point x="550" y="498"/>
      <point x="550" y="420" type="curve" smooth="yes"/>
      <point x="550" y="420"/>
      <point x="550" y="403"/>
      <point x="550" y="403" type="curve"/>
      <point x="601" y="475"/>
      <point x="658.115" y="528"/>
      <point x="759" y="528" type="curve" smooth="yes"/>
      <point x="829" y="528"/>
      <point x="889" y="484"/>
      <point x="889" y="386" type="curve" smooth="yes"/>
      <point x="889" y="365"/>
      <point x="887" y="342"/>
      <point x="881.266" y="317" type="curve" smooth="yes"/>
      <point x="813.885" y="0" type="line"/>
      <point x="621.885" y="0" type="line"/>
      <point x="687" y="306" type="line" smooth="yes"/>
      <point x="690" y="317"/>
      <point x="691" y="328"/>
      <point x="691" y="340" type="curve" smooth="yes"/>
      <point x="691" y="368"/>
      <point x="679" y="384"/>
      <point x="660" y="384" type="curve" smooth="yes"/>
      <point x="626" y="384"/>
      <point x="596" y="347"/>
      <point x="563" y="266" type="curve"/>
      <point x="506.885" y="0" type="line"/>
      <point x="314.885" y="0" type="line"/>
      <point x="381.628" y="314" type="line" smooth="yes"/>
      <point x="384" y="324"/>
      <point x="385" y="332"/>
      <point x="385" y="346" type="curve" smooth="yes"/>
      <point x="385" y="370"/>
      <point x="375" y="384"/>
      <point x="355" y="384" type="curve" smooth="yes"/>
      <point x="325" y="384"/>
      <point x="295" y="351"/>
      <point x="256" y="266" type="curve"/>
      <point x="199.885" y="0" type="line"/>
      <point x="7.88477" y="0" type="line"/>
    </contour>
  </outline>
</glyph>
<glyph name="n" format="2">
  <advance width="652"/>
  <unicode hex="006E"/>
  <guideline x="0" y="260" angle="0" name="ItalicCenter" identifier="fontra-guideline-0"/>
  <anchor x="395" y="687" name="AccentCenter"/>
  <outline>
    <contour>
      <point x="120" y="520" type="line"/>
      <point x="269" y="520" type="line"/>
      <point x="271" y="390" type="line"/>
      <point x="320" y="502"/>
      <point x="409" y="528"/>
      <point x="476" y="528" type="curve" smooth="yes"/>
      <point x="570" y="528"/>
      <point x="608" y="475"/>
      <point x="608" y="385" type="curve" smooth="yes"/>
      <point x="608" y="365"/>
      <point x="606" y="343"/>
      <point x="601" y="318" type="curve" smooth="yes"/>
      <point x="534" y="0" type="line"/>
      <point x="342" y="0" type="line"/>
      <point x="406" y="298" type="line" smooth="yes"/>
      <point x="410" y="316"/>
      <point x="410" y="334"/>
      <point x="410" y="339" type="curve" smooth="yes"/>
      <point x="410" y="367"/>
      <point x="400" y="379"/>
      <point x="381" y="379" type="curve" smooth="yes"/>
      <point x="346" y="379"/>
      <point x="289" y="340"/>
      <point x="258" y="260" type="curve"/>
      <point x="202" y="0" type="line"/>
      <point x="10" y="0" type="line"/>
    </contour>
  </outline>
</glyph>
<glyph name="o" format="2">
  <advance width="578"/>
  <unicode hex="006F"/>
  <guideline x="0" y="260" angle="0" name="ItalicCenter" identifier="fontra-guideline-0"/>
  <anchor x="403.762" y="687" name="AccentCenter"/>
  <outline>
    <contour>
      <point x="304" y="387" type="curve" smooth="yes"/>
      <point x="263" y="387"/>
      <point x="223" y="356"/>
      <point x="223" y="228" type="curve" smooth="yes"/>
      <point x="223" y="168"/>
      <point x="240" y="134"/>
      <point x="268" y="134" type="curve" smooth="yes"/>
      <point x="311" y="134"/>
      <point x="351" y="193"/>
      <point x="351" y="310" type="curve" smooth="yes"/>
      <point x="351" y="364"/>
      <point x="337" y="387"/>
    </contour>
    <contour>
      <point x="344" y="528" type="curve" smooth="yes"/>
      <point x="480" y="528"/>
      <point x="543" y="465"/>
      <point x="543" y="329" type="curve" smooth="yes"/>
      <point x="543" y="164"/>
      <point x="434" y="-8"/>
      <point x="230" y="-8" type="curve" smooth="yes"/>
      <point x="78" y="-8"/>
      <point x="32" y="72"/>
      <point x="32" y="185" type="curve" smooth="yes"/>
      <point x="32" y="373"/>
      <point x="140" y="528"/>
    </contour>
  </outline>
</glyph>
<glyph name="p" format="2">
  <advance width="660"/>
  <unicode hex="0070"/>
  <guideline x="0" y="260" angle="0" name="ItalicCenter" identifier="fontra-guideline-0"/>
  <outline>
    <contour>
      <point x="361" y="388" type="curve" smooth="yes"/>
      <point x="322" y="388"/>
      <point x="282" y="366"/>
      <point x="256" y="330" type="curve"/>
      <point x="226" y="189" type="line"/>
      <point x="237" y="151"/>
      <point x="267" y="128"/>
      <point x="301" y="128" type="curve" smooth="yes"/>
      <point x="365" y="128"/>
      <point x="407" y="172"/>
      <point x="426" y="260" type="curve" smooth="yes"/>
      <point x="443" y="341"/>
      <point x="420" y="388"/>
    </contour>
    <contour>
      <point x="109" y="520" type="line"/>
      <point x="259" y="520" type="line"/>
      <point x="284" y="460" type="line"/>
      <point x="321" y="504"/>
      <point x="375" y="528"/>
      <point x="437" y="528" type="curve" smooth="yes"/>
      <point x="576" y="528"/>
      <point x="651" y="416"/>
      <point x="617" y="259" type="curve" smooth="yes"/>
      <point x="584" y="100"/>
      <point x="468" y="-8"/>
      <point x="332" y="-8" type="curve" smooth="yes"/>
      <point x="264" y="-8"/>
      <point x="220" y="10"/>
      <point x="197" y="51" type="curve"/>
      <point x="145" y="-192" type="line"/>
      <point x="-43" y="-192" type="line"/>
    </contour>
  </outline>
</glyph>
<glyph name="q" format="2">
  <advance width="671"/>
  <unicode hex="0071"/>
  <guideline x="0" y="260" angle="0" name="ItalicCenter" identifier="fontra-guideline-0"/>
  <outline>
    <contour>
      <point x="363" y="388" type="curve" smooth="yes"/>
      <point x="305" y="388"/>
      <point x="260" y="339"/>
      <point x="243" y="256" type="curve" smooth="yes"/>
      <point x="225" y="172"/>
      <point x="248" y="128"/>
      <point x="311" y="128" type="curve" smooth="yes"/>
      <point x="347" y="128"/>
      <point x="385" y="151"/>
      <point x="412" y="187" type="curve"/>
      <point x="443" y="332" type="line"/>
      <point x="430" y="368"/>
      <point x="400" y="388"/>
    </contour>
    <contour>
      <point x="521" y="520" type="line"/>
      <point x="671" y="520" type="line"/>
      <point x="519" y="-192" type="line"/>
      <point x="331" y="-192" type="line"/>
      <point x="384" y="53" type="line"/>
      <point x="343" y="12"/>
      <point x="291" y="-8"/>
      <point x="224" y="-8" type="curve" smooth="yes"/>
      <point x="88" y="-8"/>
      <point x="18" y="100"/>
      <point x="51" y="259" type="curve" smooth="yes"/>
      <point x="85" y="419"/>
      <point x="203" y="528"/>
      <point x="340" y="528" type="curve" smooth="yes"/>
      <point x="403" y="528"/>
      <point x="452" y="501"/>
      <point x="469" y="455" type="curve"/>
    </contour>
  </outline>
</glyph>
<glyph name="r" format="2">
  <advance width="433"/>
  <unicode hex="0072"/>
  <outline>
    <contour>
      <point x="118.414" y="520" type="line"/>
      <point x="259.414" y="520" type="line"/>
      <point x="266.159" y="420" type="line"/>
      <point x="289.975" y="485"/>
      <point x="356.115" y="528"/>
      <point x="432.115" y="528" type="curve" smooth="yes"/>
      <point x="451.115" y="528"/>
      <point x="460.902" y="527"/>
      <point x="472.265" y="524" type="curve"/>
      <point x="426.807" y="376" type="line"/>
      <point x="386.807" y="376" type="line" smooth="yes"/>
      <point x="340.807" y="376"/>
      <point x="295.705" y="352"/>
      <point x="266.203" y="312" type="curve"/>
      <point x="199.885" y="0" type="line"/>
      <point x="7.88477" y="0" type="line"/>
    </contour>
  </outline>
</glyph>
<glyph name="s" format="2">
  <advance width="491"/>
  <unicode hex="0073"/>
  <guideline x="0" y="260" angle="0" name="ItalicCenter" identifier="fontra-guideline-0"/>
  <outline>
    <contour>
      <point x="302" y="528" type="curve" smooth="yes"/>
      <point x="375" y="528"/>
      <point x="424" y="513"/>
      <point x="485" y="477" type="curve"/>
      <point x="422" y="364" type="line"/>
      <point x="380" y="388"/>
      <point x="337" y="404"/>
      <point x="294" y="404" type="curve" smooth="yes"/>
      <point x="247" y="404"/>
      <point x="222" y="391"/>
      <point x="222" y="370" type="curve" smooth="yes"/>
      <point x="222" y="348"/>
      <point x="234" y="335"/>
      <point x="275" y="325" type="curve" smooth="yes"/>
      <point x="328" y="312" type="line" smooth="yes"/>
      <point x="412" y="291"/>
      <point x="459" y="251"/>
      <point x="458.532" y="159" type="curve" smooth="yes"/>
      <point x="459" y="64"/>
      <point x="379" y="-8"/>
      <point x="202" y="-8" type="curve" smooth="yes"/>
      <point x="98" y="-8"/>
      <point x="28" y="20"/>
      <point x="-11" y="54" type="curve"/>
      <point x="56" y="166" type="line"/>
      <point x="83" y="144"/>
      <point x="133" y="118"/>
      <point x="204" y="118" type="curve" smooth="yes"/>
      <point x="256" y="118"/>
      <point x="284" y="129"/>
      <point x="284" y="151" type="curve" smooth="yes"/>
      <point x="284" y="175"/>
      <point x="267" y="187"/>
      <point x="228" y="196" type="curve" smooth="yes"/>
      <point x="179" y="207" type="line" smooth="yes"/>
      <point x="76" y="230"/>
      <point x="49" y="278"/>
      <point x="49" y="361" type="curve" smooth="yes"/>
      <point x="49" y="466"/>
      <point x="145" y="528"/>
    </contour>
  </outline>
</glyph>
<glyph name="t" format="2">
  <advance width="475.9204"/>
  <unicode hex="0074"/>
  <guideline x="0" y="260" angle="0" name="ItalicCenter" identifier="fontra-guideline-0"/>
  <outline>
    <contour>
      <point x="190.2004" y="614" type="line"/>
      <point x="391.9604" y="687" type="line"/>
      <point x="355.9604" y="520" type="line"/>
      <point x="481.2204" y="520" type="line"/>
      <point x="452.1004" y="383" type="line"/>
      <point x="326.9604" y="383" type="line"/>
      <point x="286.9604" y="194" type="line" smooth="yes"/>
      <point x="278.9604" y="156"/>
      <point x="296.0234" y="138"/>
      <point x="329.0234" y="138" type="curve"/>
      <point x="347.0234" y="138"/>
      <point x="361.2364" y="139"/>
      <point x="373.4484" y="140" type="curve"/>
      <point x="400.08639999999997" y="143" type="line"/>
      <point x="387.7544" y="5" type="line"/>
      <point x="326.84139999999996" y="-4"/>
      <point x="297.2034" y="-7"/>
      <point x="263.2034" y="-7" type="curve" smooth="yes"/>
      <point x="122.20339999999999" y="-7"/>
      <point x="72.2319" y="59"/>
      <point x="103.47800000000001" y="206" type="curve" smooth="yes"/>
      <point x="141.1004" y="383" type="line"/>
      <point x="38.1" y="383" type="line"/>
      <point x="67.2202" y="520" type="line"/>
      <point x="170.22039999999998" y="520" type="line"/>
    </contour>
  </outline>
</glyph>
<glyph name="u" format="2">
  <advance width="651"/>
  <unicode hex="0075"/>
  <anchor x="402.975" y="684" name="AccentCenter"/>
  <outline>
    <contour>
      <point x="120.115" y="520" type="line"/>
      <point x="312.115" y="520" type="line"/>
      <point x="247.498" y="216" type="line" smooth="yes"/>
      <point x="236.87" y="166"/>
      <point x="255.406" y="145"/>
      <point x="294.406" y="145" type="curve" smooth="yes"/>
      <point x="327.406" y="145"/>
      <point x="362.082" y="167"/>
      <point x="381.396" y="192" type="curve"/>
      <point x="451.115" y="520" type="line"/>
      <point x="643.115" y="520" type="line"/>
      <point x="532.586" y="0" type="line"/>
      <point x="383.586" y="0" type="line"/>
      <point x="357.378" y="79" type="line"/>
      <point x="318.75" y="29"/>
      <point x="252.885" y="-8"/>
      <point x="185.885" y="-8" type="curve" smooth="yes"/>
      <point x="70.8848" y="-8"/>
      <point x="24.6768" y="71"/>
      <point x="52.5215" y="202" type="curve" smooth="yes"/>
    </contour>
  </outline>
</glyph>
<glyph name="v" format="2">
  <advance width="522"/>
  <unicode hex="0076"/>
  <guideline x="0" y="260" angle="0" name="ItalicCenter" identifier="fontra-guideline-0"/>
  <outline>
    <contour>
      <point x="35" y="520" type="line"/>
      <point x="211" y="520" type="line"/>
      <point x="239" y="173" type="line"/>
      <point x="402" y="520" type="line"/>
      <point x="582" y="520" type="line"/>
      <point x="303" y="0" type="line"/>
      <point x="101" y="0" type="line"/>
    </contour>
  </outline>
</glyph>
<glyph name="w" format="2">
  <advance width="821"/>
  <unicode hex="0077"/>
  <guideline x="0" y="260" angle="0" name="ItalicCenter" identifier="fontra-guideline-0"/>
  <outline>
    <contour>
      <point x="63" y="520" type="line"/>
      <point x="231" y="520" type="line"/>
      <point x="229" y="225" type="line"/>
      <point x="373" y="520" type="line"/>
      <point x="567" y="520" type="line"/>
      <point x="581" y="229" type="line"/>
      <point x="707" y="520" type="line"/>
      <point x="877" y="520" type="line"/>
      <point x="641" y="0" type="line"/>
      <point x="433" y="0" type="line"/>
      <point x="421" y="293" type="line"/>
      <point x="281" y="0" type="line"/>
      <point x="71" y="0" type="line"/>
    </contour>
  </outline>
</glyph>
<glyph name="x" format="2">
  <advance width="543"/>
  <unicode hex="0078"/>
  <guideline x="0" y="260" angle="0" name="ItalicCenter" identifier="fontra-guideline-0"/>
  <outline>
    <contour>
      <point x="43" y="520" type="line"/>
      <point x="238" y="520" type="line"/>
      <point x="289" y="350" type="line"/>
      <point x="413" y="520" type="line"/>
      <point x="603" y="520" type="line"/>
      <point x="387" y="260" type="line"/>
      <point x="493" y="0" type="line"/>
      <point x="303" y="0" type="line"/>
      <point x="253" y="171" type="line"/>
      <point x="128" y="0" type="line"/>
      <point x="-67" y="0" type="line"/>
      <point x="148" y="260" type="line"/>
    </contour>
  </outline>
</glyph>
<glyph name="y" format="2">
  <advance width="528"/>
  <unicode hex="0079"/>
  <guideline x="-52" y="260" angle="0" name="ItalicCenter" identifier="fontra-guideline-0"/>
  <anchor x="333.061" y="687" name="AccentCenter"/>
  <outline>
    <contour>
      <point x="32" y="520" type="line"/>
      <point x="246" y="520" type="line"/>
      <point x="266" y="300" type="line"/>
      <point x="259" y="206" type="line"/>
      <point x="296" y="300" type="line"/>
      <point x="416" y="520" type="line"/>
      <point x="610" y="520" type="line"/>
      <point x="168" y="-191" type="line"/>
      <point x="-12" y="-191" type="line"/>
      <point x="132" y="37" type="line"/>
    </contour>
  </outline>
</glyph>
<glyph name="z" format="2">
  <advance width="596"/>
  <unicode hex="007A"/>
  <outline>
    <contour>
      <point x="111.265" y="520" type="line"/>
      <point x="579.265" y="520" type="line"/>
      <point x="555.884" y="410" type="line"/>
      <point x="276.918" y="142" type="line"/>
      <point x="514.918" y="142" type="line"/>
      <point x="484.735" y="0" type="line"/>
      <point x="0.735352" y="0" type="line"/>
      <point x="24.1162" y="110" type="line"/>
      <point x="317.082" y="378" type="line"/>
      <point x="81.082" y="378" type="line"/>
    </contour>
  </outline>
</glyph>
<glyph name="braceleft" format="2">
  <advance width="357"/>
  <unicode hex="007B"/>
  <outline>
    <contour>
      <point x="431.844" y="819" type="curve"/>
      <point x="401.235" y="675" type="line"/>
      <point x="351.235" y="675"/>
      <point x="312.347" y="652"/>
      <point x="294.569" y="606" type="curve"/>
      <point x="299.014" y="514" type="line"/>
      <point x="284.135" y="444"/>
      <point x="211.357" y="398"/>
      <point x="162.382" y="384" type="curve"/>
      <point x="214.918" y="363"/>
      <point x="256.29" y="313"/>
      <point x="240.773" y="240" type="curve"/>
      <point x="197.431" y="149" type="line"/>
      <point x="192.142" y="110"/>
      <point x="221.765" y="80"/>
      <point x="274.765" y="80" type="curve"/>
      <point x="244.156" y="-64" type="line"/>
      <point x="84.1562" y="-64"/>
      <point x="24.1123" y="44"/>
      <point x="31.7305" y="141" type="curve"/>
      <point x="86.8994" y="250" type="line"/>
      <point x="87.3389" y="285"/>
      <point x="69.2275" y="308"/>
      <point x="27.2275" y="308" type="curve"/>
      <point x="58.8984" y="457" type="line"/>
      <point x="90.8984" y="457"/>
      <point x="126.087" y="472"/>
      <point x="141.313" y="506" type="curve"/>
      <point x="137.419" y="610" type="line"/>
      <point x="177.052" y="740"/>
      <point x="307.844" y="819"/>
    </contour>
  </outline>
</glyph>
<glyph name="bar" format="2">
  <advance width="227"/>
  <unicode hex="007C"/>
  <outline>
    <contour>
      <point x="171.057" y="819" type="line"/>
      <point x="299.057" y="819" type="line"/>
      <point x="110.943" y="-66" type="line"/>
      <point x="-17.0566" y="-66" type="line"/>
    </contour>
  </outline>
</glyph>
<glyph name="braceright" format="2">
  <advance width="357"/>
  <unicode hex="007D"/>
  <outline>
    <contour>
      <point x="135.844" y="819" type="line"/>
      <point x="259.844" y="819"/>
      <point x="357.052" y="740"/>
      <point x="341.419" y="610" type="curve"/>
      <point x="293.313" y="506" type="line"/>
      <point x="294.087" y="472"/>
      <point x="322.898" y="457"/>
      <point x="354.898" y="457" type="curve"/>
      <point x="323.228" y="308" type="line"/>
      <point x="281.228" y="308"/>
      <point x="253.339" y="285"/>
      <point x="238.899" y="250" type="curve"/>
      <point x="247.73" y="141" type="line"/>
      <point x="214.112" y="44"/>
      <point x="108.156" y="-64"/>
      <point x="-51.8438" y="-64" type="curve"/>
      <point x="-21.2354" y="80" type="line"/>
      <point x="31.7646" y="80"/>
      <point x="74.1416" y="110"/>
      <point x="85.4307" y="149" type="curve"/>
      <point x="80.7734" y="240" type="line"/>
      <point x="96.29" y="313"/>
      <point x="158.918" y="363"/>
      <point x="220.382" y="384" type="curve"/>
      <point x="177.357" y="398"/>
      <point x="124.135" y="444"/>
      <point x="139.014" y="514" type="curve"/>
      <point x="182.569" y="606" type="line"/>
      <point x="184.347" y="652"/>
      <point x="155.235" y="675"/>
      <point x="105.235" y="675" type="curve"/>
    </contour>
  </outline>
</glyph>
<glyph name="asciitilde" format="2">
  <advance width="713"/>
  <unicode hex="007E"/>
  <outline>
    <contour>
      <point x="31.3916" y="265" type="line"/>
      <point x="31.3916" y="265"/>
      <point x="98.1104" y="386"/>
      <point x="288.11" y="386" type="curve" smooth="yes"/>
      <point x="363.11" y="386"/>
      <point x="406.995" y="329"/>
      <point x="477.995" y="329" type="curve" smooth="yes"/>
      <point x="535.995" y="329"/>
      <point x="589.686" y="384"/>
      <point x="589.686" y="384" type="curve"/>
      <point x="680.971" y="343" type="line"/>
      <point x="680.971" y="343"/>
      <point x="611.89" y="225"/>
      <point x="447.89" y="225" type="curve" smooth="yes"/>
      <point x="364.89" y="225"/>
      <point x="331.218" y="283"/>
      <point x="266.218" y="283" type="curve" smooth="yes"/>
      <point x="191.218" y="283"/>
      <point x="122.89" y="225"/>
      <point x="122.89" y="225" type="curve"/>
    </contour>
  </outline>
</glyph>
